<svg width="47" height="72" viewBox="0 0 47 72" fill="none" xmlns="http://www.w3.org/2000/svg">
<g clip-path="url(#clip0_1_913)">
<path d="M11.7555 72C18.2402 72 23.5031 66.624 23.5031 60V48H11.7555C5.27076 48 0.0078125 53.376 0.0078125 60C0.0078125 66.624 5.27076 72 11.7555 72Z" fill="#0ACF83"/>
<path d="M0.0078125 36C0.0078125 29.376 5.27076 24 11.7555 24H23.5031V48H11.7555C5.27076 48 0.0078125 42.624 0.0078125 36Z" fill="#A259FF"/>
<path d="M0.0078125 12C0.0078125 5.376 5.27076 0 11.7555 0H23.5031V24H11.7555C5.27076 24 0.0078125 18.624 0.0078125 12Z" fill="#F24E1E"/>
<path d="M23.5 0H35.2477C41.7324 0 46.9953 5.376 46.9953 12C46.9953 18.624 41.7324 24 35.2477 24H23.5V0Z" fill="#FF7262"/>
<path d="M46.9953 36C46.9953 42.624 41.7324 48 35.2477 48C28.7629 48 23.5 42.624 23.5 36C23.5 29.376 28.7629 24 35.2477 24C41.7324 24 46.9953 29.376 46.9953 36Z" fill="#1ABCFE"/>
</g>
<defs>
<clipPath id="clip0_1_913">
<rect width="47" height="72" fill="white"/>
</clipPath>
</defs>
</svg>
