<svg width="68" height="68" viewBox="0 0 68 68" fill="none" xmlns="http://www.w3.org/2000/svg">
<path d="M10.1459 60.0553H50.5464L48.6169 53.8078L53.2324 57.7688L57.4626 61.5598L65.1693 68V7.0125C64.9766 3.2215 61.7126 0 57.6666 0L10.1601 0.0085C6.11694 0.0085 2.83594 3.23567 2.83594 7.02667V53.04C2.83594 57.0378 6.11127 60.0553 10.1459 60.0553ZM40.0319 16.1018L39.9384 16.1358L39.9724 16.1018H40.0319ZM18.4108 19.6973C23.6043 15.9177 28.4181 16.099 28.4181 16.099L28.8063 16.4815C22.4511 17.9973 19.5696 20.8363 19.5696 20.8363C19.5696 20.8363 20.3403 20.4595 21.6861 19.8843C30.2456 16.5183 39.5928 16.762 48.2458 21.0233C48.2458 21.0233 45.3586 18.3685 39.3944 16.6685L39.9214 16.15C40.7459 16.1528 45.1093 16.3058 49.7786 19.72C49.7786 19.72 55.0033 28.645 55.0033 39.61C54.8304 39.4003 51.7619 44.3303 43.8654 44.5003C43.8654 44.5003 42.5281 42.9873 41.5761 41.667C46.1944 40.341 47.9228 37.689 47.9228 37.689C46.4069 38.6438 45.0243 39.2105 43.9023 39.7772C42.1768 40.5365 40.4484 40.9105 38.7229 41.293C30.5516 42.619 25.9644 40.4005 21.6294 38.641L20.1476 37.8873C20.1476 37.8873 21.8731 40.5393 26.3073 41.8653C25.1428 43.1942 23.9896 44.7043 23.9896 44.7043C16.0959 44.5173 13.2173 39.5873 13.2173 39.5873C13.2173 28.6053 18.4108 19.6973 18.4108 19.6973Z" fill="#5865F2"/>
<path d="M40.5417 36.1842C42.5562 36.1842 44.1967 34.4842 44.1967 32.3875C44.1967 30.305 42.5647 28.605 40.5417 28.605V28.6135C38.5357 28.6135 36.8924 30.3079 36.8867 32.4045C36.8867 34.4842 38.5272 36.1842 40.5417 36.1842Z" fill="#5865F2"/>
<path d="M27.4597 36.1842C29.4742 36.1842 31.1147 34.4842 31.1147 32.3875C31.1147 30.305 29.4855 28.605 27.471 28.605L27.4597 28.6135C25.4452 28.6135 23.8047 30.3079 23.8047 32.4045C23.8047 34.4842 25.4452 36.1842 27.4597 36.1842Z" fill="#5865F2"/>
</svg>
