<svg width="69" height="47" viewBox="0 0 69 47" fill="none" xmlns="http://www.w3.org/2000/svg">
<g clip-path="url(#clip0_1_896)">
<path d="M51.1837 13.7389C51.1837 13.7389 45.5765 31.0075 45.1621 32.4737C44.9964 31.0347 40.9083 0 40.9083 0C31.3511 0 26.2686 6.67938 23.5616 13.7389C23.5616 13.7389 16.739 31.0618 16.1865 32.5009C16.1589 31.1433 15.1369 13.9018 15.1369 13.9018C14.5568 5.24032 6.51882 0 0 0L7.84468 47C17.8439 46.9728 23.2302 40.3206 26.0476 33.234C26.0476 33.234 32.0416 17.9474 32.2902 17.2686C32.3455 17.9203 36.5993 47 36.5993 47C46.6261 47 52.04 40.7822 54.9403 33.9671L69 0C59.0837 0 53.8631 6.65223 51.1837 13.7389Z" fill="#4353FF"/>
</g>
<defs>
<clipPath id="clip0_1_896">
<rect width="69" height="47" fill="white"/>
</clipPath>
</defs>
</svg>
