<svg width="126" height="71" viewBox="0 0 126 71" fill="none" xmlns="http://www.w3.org/2000/svg">
<path d="M48.0165 40.7469C47.5978 40.7698 47.1837 40.6497 46.841 40.4061C46.6977 40.2991 46.5825 40.1584 46.5053 39.9964C46.428 39.8343 46.391 39.6557 46.3975 39.476V32.8943C46.3941 32.8665 46.397 32.8382 46.406 32.8116C46.4151 32.7851 46.43 32.7609 46.4497 32.7411C46.4694 32.7212 46.4933 32.7062 46.5196 32.697C46.546 32.6879 46.574 32.6849 46.6017 32.6884H47.7842C47.918 32.6884 47.9813 32.7594 47.9813 32.8943V38.9648C47.9813 39.2346 48.101 39.3695 48.3473 39.3695C48.4517 39.3739 48.5562 39.3619 48.6571 39.334C48.7979 39.334 48.8753 39.3766 48.8823 39.5044L48.9879 40.3919C48.993 40.4178 48.9925 40.4445 48.9864 40.4702C48.9804 40.4958 48.969 40.5199 48.9531 40.5407C48.937 40.5616 48.9168 40.5787 48.8937 40.5911C48.8705 40.6034 48.845 40.6105 48.8189 40.612C48.5599 40.6983 48.2893 40.7438 48.0165 40.7469Z" fill="#080829"/>
<path d="M54.6685 39.9872C54.0743 40.4825 53.3276 40.7533 52.5568 40.7533C51.786 40.7533 51.0393 40.4825 50.445 39.9872C49.9228 39.4554 49.6298 38.7371 49.6298 37.9886C49.6298 37.24 49.9228 36.5217 50.445 35.9899C51.0405 35.4973 51.7867 35.228 52.5568 35.228C53.3269 35.228 54.0731 35.4973 54.6685 35.9899C55.1788 36.5266 55.4636 37.2414 55.4636 37.985C55.4636 38.7286 55.1788 39.4434 54.6685 39.9801V39.9872ZM51.5572 39.05C51.833 39.302 52.1918 39.4415 52.5638 39.4415C52.9359 39.4415 53.2947 39.302 53.5704 39.05C53.82 38.7606 53.9575 38.3899 53.9575 38.0063C53.9575 37.6227 53.82 37.2521 53.5704 36.9626C53.2947 36.7107 52.9359 36.5711 52.5638 36.5711C52.1918 36.5711 51.833 36.7107 51.5572 36.9626C51.3077 37.2521 51.1702 37.6227 51.1702 38.0063C51.1702 38.3899 51.3077 38.7606 51.5572 39.05Z" fill="#080829"/>
<path d="M61.9752 35.4077C62.1089 35.4077 62.1723 35.4787 62.1723 35.6136V40.7043C62.1845 41.0479 62.1208 41.39 61.9857 41.7056C61.8505 42.0212 61.6473 42.3026 61.3909 42.529C60.8217 43.0186 60.0897 43.2723 59.3425 43.239C58.6676 43.263 58.0017 43.0771 57.4349 42.7065C57.1929 42.5463 56.9862 42.3375 56.8275 42.0932C56.6689 41.8489 56.5618 41.5744 56.5128 41.2865C56.5128 41.1445 56.5128 41.0806 56.7029 41.0806H57.8854C57.9356 41.0823 57.9843 41.0987 58.0255 41.1276C58.0667 41.1567 58.0987 41.197 58.1177 41.2439C58.1944 41.4596 58.3473 41.6391 58.5471 41.748C58.7906 41.8748 59.0615 41.9382 59.3355 41.9326C59.5008 41.9418 59.6662 41.9176 59.8221 41.8615C59.978 41.8055 60.1213 41.7186 60.2435 41.606C60.3552 41.4883 60.4421 41.349 60.499 41.1964C60.5558 41.0439 60.5815 40.8813 60.5744 40.7185V40.2712C60.151 40.5853 59.6356 40.7478 59.1102 40.7327C58.7425 40.7462 58.3759 40.6846 58.0324 40.5516C57.6888 40.4186 57.3755 40.217 57.1111 39.9588C56.6036 39.4293 56.3199 38.7216 56.3199 37.985C56.3199 37.2486 56.6036 36.5408 57.1111 36.0112C57.3767 35.7554 57.6905 35.5556 58.0338 35.424C58.3771 35.2923 58.7432 35.2312 59.1102 35.2444C59.6508 35.23 60.18 35.4029 60.6096 35.7343V35.6207C60.6063 35.5935 60.6092 35.5659 60.6178 35.5399C60.6265 35.514 60.6408 35.4903 60.6596 35.4706C60.6785 35.4508 60.7014 35.4356 60.7269 35.426C60.7523 35.4163 60.7796 35.4126 60.8067 35.4148L61.9752 35.4077ZM59.244 39.4689C59.4253 39.4746 59.6057 39.44 59.7723 39.3676C59.939 39.2953 60.0878 39.1869 60.2083 39.05C60.4423 38.7452 60.5693 38.3706 60.5693 37.985C60.5693 37.5995 60.4423 37.2249 60.2083 36.92C60.0882 36.7851 59.9403 36.6783 59.7749 36.6071C59.6095 36.536 59.4307 36.5023 59.251 36.5082C59.0676 36.5024 58.8851 36.5369 58.7161 36.6092C58.5472 36.6816 58.3958 36.79 58.2726 36.9271C58.0133 37.2187 57.877 37.6008 57.8925 37.9921C57.8797 38.3797 58.0131 38.7577 58.2656 39.05C58.3891 39.1868 58.5405 39.2951 58.7094 39.3673C58.8782 39.4396 59.0606 39.4743 59.244 39.4689Z" fill="#080829"/>
<path d="M68.2469 39.9871C67.6515 40.4798 66.9052 40.749 66.1352 40.749C65.3651 40.749 64.6188 40.4798 64.0234 39.9871C63.5127 39.4492 63.2277 38.7332 63.2277 37.9885C63.2277 37.2437 63.5127 36.5277 64.0234 35.9898C64.6194 35.4984 65.3654 35.23 66.1352 35.23C66.9049 35.23 67.651 35.4984 68.2469 35.9898C68.7571 36.5265 69.042 37.2413 69.042 37.9849C69.042 38.7285 68.7571 39.4433 68.2469 39.98V39.9871ZM65.1286 39.0499C65.2635 39.1794 65.4226 39.2806 65.5966 39.3476C65.7705 39.4146 65.956 39.4462 66.1422 39.4404C66.3272 39.4452 66.5113 39.4132 66.684 39.3463C66.8567 39.2793 67.0147 39.1786 67.1488 39.0499C67.3942 38.7585 67.529 38.3886 67.529 38.0062C67.529 37.6238 67.3942 37.2539 67.1488 36.9625C67.0147 36.8339 66.8567 36.7332 66.684 36.6662C66.5113 36.5992 66.3272 36.5672 66.1422 36.572C65.956 36.5662 65.7705 36.5978 65.5966 36.6648C65.4226 36.7318 65.2635 36.833 65.1286 36.9625C64.883 37.2539 64.7483 37.6238 64.7483 38.0062C64.7483 38.3886 64.883 38.7585 65.1286 39.0499Z" fill="#080829"/>
<path d="M71.5835 34.2007C71.3976 34.365 71.1583 34.4555 70.9112 34.4555C70.6642 34.4555 70.4248 34.365 70.2389 34.2007C70.1546 34.1204 70.0874 34.0236 70.0414 33.9162C69.9955 33.8087 69.9718 33.6929 69.9718 33.5759C69.9718 33.4589 69.9955 33.3432 70.0414 33.2357C70.0874 33.1283 70.1546 33.0314 70.2389 32.9511C70.4269 32.791 70.6649 32.7031 70.9112 32.7031C71.1576 32.7031 71.3955 32.791 71.5835 32.9511C71.6679 33.0314 71.7348 33.1283 71.7813 33.2357C71.827 33.3432 71.8503 33.4589 71.8503 33.5759C71.8503 33.6929 71.827 33.8087 71.7813 33.9162C71.7348 34.0236 71.6679 34.1204 71.5835 34.2007ZM71.7313 40.7469C71.3132 40.7677 70.8993 40.6477 70.5558 40.4061C70.415 40.2975 70.3014 40.1564 70.2256 39.9945C70.1496 39.8327 70.1132 39.6549 70.1193 39.476V35.6136C70.1159 35.5858 70.1188 35.5575 70.1279 35.5309C70.1369 35.5044 70.1519 35.4803 70.1715 35.4604C70.1912 35.4405 70.2151 35.4255 70.2415 35.4164C70.2678 35.4072 70.2958 35.4043 70.3234 35.4077H71.506C71.6398 35.4077 71.7031 35.4787 71.7031 35.6136V38.9648C71.7031 39.2346 71.8228 39.3695 72.0621 39.3695C72.1691 39.3734 72.2754 39.3614 72.3789 39.334C72.5197 39.334 72.5971 39.3766 72.6041 39.5044L72.7097 40.3919C72.7147 40.4178 72.714 40.4445 72.7083 40.4702C72.702 40.4958 72.6907 40.5199 72.6745 40.5407C72.6591 40.5616 72.6386 40.5788 72.6154 40.5911C72.5922 40.6034 72.5668 40.6105 72.5408 40.612C72.2796 40.6989 72.0065 40.7444 71.7313 40.7469Z" fill="#080829"/>
<path d="M77.0599 35.2375C77.4295 35.2228 77.7976 35.2831 78.1439 35.4148C78.4895 35.5465 78.8056 35.747 79.0731 36.0043C79.5707 36.5432 79.8474 37.2523 79.8474 37.9888C79.8474 38.7253 79.5707 39.4344 79.0731 39.9732C78.807 40.2328 78.491 40.4353 78.1453 40.5683C77.799 40.7013 77.4302 40.7622 77.0599 40.7471C76.5327 40.759 76.016 40.5969 75.5887 40.2856V42.8487C75.5887 42.9836 75.5183 43.0475 75.3846 43.0475H74.202C74.1753 43.0527 74.1471 43.051 74.1211 43.0429C74.095 43.0346 74.0711 43.0201 74.0514 43.0005C74.0324 42.9809 74.0176 42.9569 74.0099 42.9305C74.0014 42.904 74 42.8759 74.0049 42.8487V37.0267C74.0134 36.9698 74.0084 36.9117 73.9901 36.8571C73.9725 36.8025 73.9423 36.7528 73.9015 36.7121C73.8613 36.6714 73.8121 36.6408 73.7579 36.6227C73.7037 36.6046 73.6459 36.5995 73.5896 36.6078H73.3573C73.2025 36.6078 73.125 36.551 73.125 36.4374V35.5996C73.1215 35.5478 73.1356 35.4963 73.1652 35.4537C73.1947 35.411 73.2377 35.3798 73.2869 35.3653C73.5305 35.2761 73.7881 35.2328 74.0472 35.2375C74.3055 35.2145 74.5645 35.2697 74.7919 35.3962C75.0186 35.5228 75.203 35.7147 75.3212 35.9475C75.5479 35.7162 75.8189 35.5339 76.1181 35.4118C76.4172 35.2898 76.7375 35.2304 77.0599 35.2375ZM75.9618 39.0502C76.0871 39.1826 76.2377 39.2879 76.4053 39.3598C76.5721 39.4317 76.7516 39.4688 76.9332 39.4688C77.1148 39.4688 77.2943 39.4317 77.4611 39.3598C77.628 39.2879 77.7793 39.1826 77.9046 39.0502C78.1693 38.7528 78.3079 38.3631 78.2917 37.9639C78.31 37.5644 78.1707 37.1739 77.9046 36.8776C77.7793 36.7454 77.628 36.6401 77.4611 36.5681C77.2943 36.4962 77.1148 36.4591 76.9332 36.4591C76.7516 36.4591 76.5721 36.4962 76.4053 36.5681C76.2377 36.6401 76.0871 36.7454 75.9618 36.8776C75.7056 37.1791 75.5725 37.5673 75.5887 37.9639C75.5747 38.3603 75.7077 38.7477 75.9618 39.0502Z" fill="#080829"/>
<path d="M83.1699 40.7467C82.5378 40.7729 81.9113 40.6205 81.3608 40.3066C81.1398 40.1724 80.9519 39.9897 80.8104 39.7721C80.6689 39.5546 80.5781 39.3077 80.5443 39.0498C80.5443 38.9078 80.5936 38.8369 80.7484 38.8369H81.7832C81.8325 38.8388 81.8803 38.8544 81.9212 38.8819C81.962 38.9096 81.9951 38.948 82.0155 38.993C82.1633 39.3764 82.5505 39.5681 83.1699 39.5681C83.386 39.5781 83.6014 39.5342 83.7964 39.4403C83.864 39.4097 83.9217 39.3611 83.9639 39.2998C84.0061 39.2386 84.0308 39.1669 84.0357 39.0925C84.0357 38.9079 83.9231 38.78 83.6978 38.6948C83.4303 38.6052 83.1544 38.5456 82.8743 38.5173C82.542 38.4794 82.2133 38.4202 81.8888 38.3398C81.5734 38.2679 81.2862 38.1021 81.0652 37.8642C80.935 37.7024 80.8392 37.5153 80.7836 37.3146C80.728 37.1139 80.714 36.9037 80.7421 36.6973C80.7703 36.4909 80.8407 36.2925 80.9484 36.1146C81.0561 35.9367 81.1989 35.7831 81.3679 35.6631C81.8754 35.3372 82.4702 35.1784 83.0713 35.2087C83.6528 35.1889 84.2286 35.3341 84.7326 35.6276C84.9353 35.7437 85.1106 35.904 85.2443 36.0968C85.3788 36.2897 85.4682 36.5102 85.5069 36.7423C85.5069 36.8843 85.4435 36.9553 85.3168 36.9553H84.275C84.2314 36.958 84.1877 36.9472 84.1497 36.9244C84.1124 36.9016 84.0822 36.8678 84.0639 36.8275C83.9942 36.6594 83.8632 36.5247 83.6978 36.4512C83.5113 36.3528 83.3029 36.3039 83.0925 36.3092C82.8862 36.298 82.68 36.3394 82.4941 36.43C82.4287 36.4555 82.3717 36.5002 82.3315 36.5585C82.2914 36.6167 82.2696 36.6856 82.2689 36.7566C82.2731 36.8537 82.3083 36.9468 82.3695 37.0222C82.4301 37.0975 82.5131 37.1512 82.6068 37.1755C82.8771 37.2782 83.1579 37.3497 83.4444 37.3884C83.7738 37.4322 84.1005 37.4937 84.4229 37.573C84.7382 37.6451 85.0254 37.8108 85.2464 38.0487C85.3647 38.1799 85.4562 38.3333 85.5153 38.5003C85.5745 38.6672 85.6005 38.8444 85.5913 39.0214C85.5977 39.2669 85.54 39.5097 85.4252 39.7263C85.3105 39.9427 85.1423 40.1256 84.9367 40.2569C84.4109 40.5974 83.7943 40.7683 83.1699 40.7467Z" fill="#080829"/>
<path d="M93.0317 40.3919C93.0359 40.4171 93.0345 40.4429 93.0289 40.4677C93.0225 40.4925 93.012 40.5158 92.9965 40.5363C92.9817 40.5568 92.9627 40.5741 92.9409 40.5871C92.9191 40.6001 92.8951 40.6085 92.8698 40.612C92.6129 40.6966 92.3447 40.7421 92.0744 40.7469C91.8069 40.7749 91.5366 40.7327 91.2902 40.6244C91.0431 40.5162 90.8284 40.3457 90.6665 40.1292C90.1696 40.5604 89.5262 40.7816 88.8716 40.7469C88.5675 40.761 88.2641 40.7108 87.9804 40.5996C87.6967 40.4883 87.4391 40.3184 87.2244 40.1008C87.0111 39.8728 86.8457 39.6037 86.738 39.3097C86.6303 39.0157 86.5825 38.7028 86.5979 38.3897V35.6136C86.5979 35.4787 86.6613 35.4077 86.795 35.4077H87.9776C88.1113 35.4077 88.1747 35.4787 88.1747 35.6136V38.1767C88.162 38.4961 88.2697 38.8083 88.4774 39.05C88.5809 39.1607 88.7069 39.2478 88.8462 39.3054C88.9856 39.3629 89.1362 39.3897 89.2869 39.3837C89.441 39.3905 89.5952 39.3664 89.7402 39.3128C89.8852 39.2592 90.0182 39.1771 90.1316 39.0713C90.2386 38.9598 90.3223 38.8273 90.3765 38.682C90.4314 38.5367 90.4554 38.3816 90.4483 38.2264V35.6136C90.4483 35.4787 90.5117 35.4077 90.6454 35.4077H91.8421C91.9758 35.4077 92.0392 35.4787 92.0392 35.6136V38.9577C92.0392 39.2346 92.1588 39.3695 92.3911 39.3695C92.5002 39.3738 92.6093 39.3618 92.7149 39.334C92.7417 39.3265 92.7691 39.3251 92.7966 39.33C92.824 39.335 92.8494 39.3461 92.8719 39.3625C92.8944 39.3789 92.9127 39.4002 92.9254 39.4248C92.9388 39.4493 92.9458 39.4766 92.9472 39.5044L93.0317 40.3919Z" fill="#080829"/>
<path d="M104.217 40.3919C104.223 40.4173 104.224 40.4438 104.219 40.4695C104.213 40.4952 104.203 40.5195 104.187 40.5405C104.172 40.5615 104.152 40.5788 104.129 40.5912C104.106 40.6035 104.081 40.6106 104.055 40.612C103.793 40.6978 103.521 40.7432 103.245 40.7469C102.827 40.7687 102.413 40.6487 102.07 40.4061C101.921 40.3021 101.801 40.1629 101.719 40.0007C101.636 39.8383 101.595 39.6581 101.598 39.476V37.8075C101.613 37.4891 101.507 37.1769 101.303 36.9342C101.204 36.8232 101.082 36.7357 100.946 36.678C100.809 36.6203 100.662 36.5938 100.514 36.6005C100.381 36.5954 100.249 36.6208 100.126 36.675C100.005 36.7291 99.8968 36.8104 99.8103 36.9129C99.6244 37.1508 99.5294 37.4481 99.5428 37.7507V40.3706C99.5428 40.5055 99.4794 40.5765 99.3457 40.5765H98.1561C98.1286 40.5799 98.1005 40.577 98.0744 40.5679C98.0477 40.5587 98.0237 40.5437 98.004 40.5238C97.9843 40.504 97.9695 40.4798 97.9604 40.4533C97.9512 40.4267 97.9484 40.3985 97.9519 40.3706V37.8075C97.9674 37.4926 97.8696 37.1826 97.6774 36.9342C97.5915 36.8298 97.4838 36.7458 97.362 36.6881C97.241 36.6304 97.1079 36.6005 96.9735 36.6005C96.8299 36.5946 96.687 36.6194 96.5533 36.6732C96.4195 36.7271 96.2991 36.8088 96.1992 36.9129C95.9979 37.1432 95.8944 37.444 95.9106 37.7507V40.3706C95.9141 40.3985 95.9113 40.4267 95.9021 40.4533C95.893 40.4798 95.8782 40.504 95.8585 40.5238C95.8388 40.5437 95.8149 40.5587 95.7888 40.5679C95.7621 40.577 95.7339 40.5799 95.7065 40.5765H94.5591C94.4253 40.5765 94.362 40.5055 94.362 40.3706V37.0265C94.3704 36.9695 94.3655 36.9114 94.3472 36.8568C94.3296 36.8021 94.2993 36.7525 94.2585 36.7118C94.2184 36.6711 94.1691 36.6405 94.1149 36.6224C94.0607 36.6043 94.003 36.5992 93.9467 36.6076H93.7144C93.5595 36.6076 93.4821 36.5508 93.4821 36.4372V35.5994C93.4786 35.5475 93.4927 35.496 93.5222 35.4533C93.5518 35.4107 93.5947 35.3795 93.644 35.3651C93.8875 35.2758 94.1452 35.2324 94.4042 35.2373C94.6527 35.2159 94.9026 35.2659 95.1243 35.3815C95.346 35.4971 95.5305 35.6735 95.6572 35.8905C95.8944 35.6634 96.176 35.4882 96.4836 35.3759C96.7912 35.2635 97.1185 35.2163 97.4451 35.2373C97.7626 35.2216 98.0786 35.2816 98.3686 35.4124C98.6587 35.5432 98.9135 35.741 99.1134 35.9899C99.3464 35.7345 99.6329 35.5345 99.9517 35.4043C100.271 35.2742 100.614 35.2171 100.958 35.2373C101.265 35.2228 101.572 35.2727 101.859 35.3839C102.146 35.4951 102.407 35.6652 102.626 35.8834C102.84 36.1109 103.005 36.3799 103.113 36.674C103.221 36.9682 103.269 37.2814 103.252 37.5945V38.9648C103.252 39.2346 103.372 39.3695 103.597 39.3695C103.706 39.3746 103.816 39.3626 103.921 39.334C104.067 39.334 104.144 39.3908 104.153 39.5044L104.217 40.3919Z" fill="#080829"/>
<path d="M21.6762 34.4845C22.1955 32.3791 23.3983 30.5095 25.0929 29.1733C26.7876 27.8372 28.8767 27.1113 31.0276 27.1113C33.1786 27.1113 35.2677 27.8372 36.9624 29.1733C38.657 30.5095 39.8598 32.3791 40.3791 34.4845H39.5344C38.1095 34.4633 36.7137 34.8929 35.5432 35.7128C35.4757 35.7621 35.4052 35.8071 35.332 35.8477H35.2335C35.1604 35.8071 35.0899 35.7621 35.0223 35.7128C33.8414 34.9118 32.4507 34.484 31.0276 34.484C29.6046 34.484 28.2138 34.9118 27.0329 35.7128C26.9654 35.7621 26.8949 35.8071 26.8218 35.8477H26.7232C26.6501 35.8071 26.5796 35.7621 26.512 35.7128C25.3416 34.8929 23.9458 34.4633 22.5209 34.4845H21.6762ZM38.0139 38.9362C38.4476 38.5956 38.985 38.4174 39.5344 38.4321H40.6677V36.153H39.5344C38.5667 36.1412 37.6211 36.445 36.8384 37.0192C36.398 37.3467 35.8652 37.5233 35.318 37.5233C34.7708 37.5233 34.238 37.3467 33.7975 37.0192C32.995 36.4557 32.0406 36.1536 31.0628 36.1536C30.085 36.1536 29.1307 36.4557 28.3281 37.0192C27.8877 37.3467 27.3549 37.5233 26.8077 37.5233C26.2605 37.5233 25.7277 37.3467 25.2872 37.0192C24.4949 36.4376 23.5358 36.1334 22.5561 36.153H21.3876V38.4321H22.5209C23.0703 38.4174 23.6077 38.5956 24.0413 38.9362C24.8424 39.5 25.7957 39.8024 26.7725 39.8024C27.7493 39.8024 28.7026 39.5 29.5037 38.9362C29.9378 38.5966 30.4749 38.4186 31.0241 38.4321C31.5737 38.4162 32.1115 38.5945 32.5446 38.9362C33.3471 39.4996 34.3014 39.8017 35.2792 39.8017C36.257 39.8017 37.2114 39.4996 38.0139 38.9362ZM38.0139 43.0116C38.4476 42.671 38.985 42.4928 39.5344 42.5075H40.6677V40.2284H39.5344C38.5667 40.2166 37.6211 40.5204 36.8384 41.0946C36.398 41.4221 35.8652 41.5987 35.318 41.5987C34.7708 41.5987 34.238 41.4221 33.7975 41.0946C32.995 40.5311 32.0406 40.229 31.0628 40.229C30.085 40.229 29.1307 40.5311 28.3281 41.0946C27.8877 41.4221 27.3549 41.5987 26.8077 41.5987C26.2605 41.5987 25.7277 41.4221 25.2872 41.0946C24.4949 40.513 23.5358 40.2088 22.5561 40.2284H21.3876V42.5075H22.5209C23.0703 42.4928 23.6077 42.671 24.0413 43.0116C24.8424 43.5754 25.7957 43.8778 26.7725 43.8778C27.7493 43.8778 28.7026 43.5754 29.5037 43.0116C29.9378 42.672 30.4749 42.494 31.0241 42.5075C31.5737 42.4916 32.1115 42.6699 32.5446 43.0116C33.3471 43.575 34.3014 43.8771 35.2792 43.8771C36.257 43.8771 37.2114 43.575 38.0139 43.0116Z" fill="#080829"/>
</svg>
