<svg width="126" height="71" viewBox="0 0 126 71" fill="none" xmlns="http://www.w3.org/2000/svg">
<path d="M22.6906 44.6055H40.8473V26.394H22.6906V44.6055ZM37.3526 33.7475H33.5159V29.8993H37.3526V33.7475ZM26.1846 29.8993H30.0233V37.2521H37.3526V41.1003H26.1846V29.8993ZM52.6708 26.394C50.8753 26.394 49.12 26.9281 47.6271 27.9286C46.1342 28.9292 44.9706 30.3513 44.2835 32.0152C43.5964 33.6791 43.4166 35.5099 43.7669 37.2763C44.1171 39.0426 44.9818 40.6651 46.2514 41.9386C47.521 43.212 49.1387 44.0792 50.8997 44.4306C52.6607 44.7819 54.4861 44.6016 56.1449 43.9124C57.8038 43.2232 59.2216 42.0561 60.2192 40.5587C61.2168 39.0612 61.7491 37.3008 61.7491 35.4998C61.7464 33.0857 60.789 30.7713 59.0871 29.0642C57.3851 27.3572 55.0776 26.3969 52.6708 26.394ZM52.6708 41.1003C51.5664 41.1003 50.4869 40.7718 49.5687 40.1564C48.6504 39.541 47.9348 38.6664 47.5122 37.643C47.0895 36.6197 46.979 35.4936 47.1944 34.4072C47.4099 33.3208 47.9417 32.3229 48.7226 31.5397C49.5034 30.7564 50.4983 30.223 51.5815 30.0069C52.6646 29.7908 53.7873 29.9017 54.8075 30.3257C55.8278 30.7495 56.6999 31.4673 57.3134 32.3884C57.9269 33.3094 58.2544 34.3921 58.2544 35.4998C58.2522 36.9845 57.6632 38.4077 56.6165 39.4575C55.5699 40.5073 54.151 41.098 52.6708 41.1003ZM94.236 26.394C92.4401 26.3939 90.6853 26.9278 89.1917 27.9283C87.6988 28.9287 86.5351 30.3509 85.8478 32.0147C85.1611 33.6786 84.9806 35.5094 85.331 37.2758C85.6814 39.0422 86.5457 40.6648 87.8156 41.9383C89.0848 43.2118 90.703 44.0791 92.4642 44.4305C94.2246 44.782 96.0502 44.6016 97.7095 43.9125C99.368 43.2233 100.786 42.0562 101.783 40.5588C102.781 39.0613 103.314 37.3008 103.314 35.4998C103.311 33.0858 102.354 30.7715 100.652 29.0644C98.9496 27.3574 96.6427 26.3971 94.236 26.394ZM94.236 41.1003C93.1317 41.1004 92.0522 40.7721 91.1334 40.1568C90.2153 39.5415 89.4996 38.6668 89.077 37.6435C88.6537 36.6202 88.5433 35.494 88.7585 34.4077C88.9744 33.3212 89.506 32.3233 90.2868 31.5399C91.0676 30.7566 92.0628 30.2231 93.1459 30.007C94.2289 29.7908 95.3516 29.9017 96.3716 30.3256C97.3923 30.7495 98.2644 31.4673 98.8774 32.3883C99.4912 33.3093 99.8189 34.3921 99.8189 35.4998C99.8168 36.9843 99.2278 38.4074 98.1809 39.4572C97.1347 40.507 95.7161 41.0979 94.236 41.1003ZM73.453 26.394C71.6572 26.394 69.9023 26.9281 68.4093 27.9286C66.9164 28.9292 65.7528 30.3513 65.0657 32.0152C64.3786 33.6791 64.1988 35.5099 64.5491 37.2763C64.8993 39.0426 65.764 40.6651 67.0336 41.9386C68.3033 43.212 69.9209 44.0792 71.682 44.4306C73.4431 44.7819 75.268 44.6016 76.9273 43.9124C78.5858 43.2232 80.0036 42.0561 81.0017 40.5587C81.9991 39.0612 82.5314 37.3008 82.5314 35.4998C82.5286 33.0857 81.5708 30.7713 79.8691 29.0642C78.1674 27.3572 75.8598 26.3969 73.453 26.394ZM73.453 41.1003C72.4238 41.1008 71.4151 40.8161 70.5373 40.2777C69.6595 39.7394 68.9471 38.9682 68.4787 38.0493C68.0103 37.1305 67.8041 36.0996 67.883 35.0707C67.9618 34.0417 68.3226 33.0546 68.9255 32.2183C69.5283 31.382 70.3498 30.729 71.299 30.3315C72.249 29.934 73.2895 29.8073 74.306 29.9656C75.3232 30.1237 76.276 30.5606 77.061 31.228C77.8461 31.8954 78.4315 32.7674 78.7535 33.7475H73.453V37.2521H78.7535C78.3847 38.3705 77.674 39.3442 76.7227 40.0349C75.7713 40.7257 74.6274 41.0984 73.453 41.1003Z" fill="#080829"/>
</svg>
