<svg width="126" height="71" viewBox="0 0 126 71" fill="none" xmlns="http://www.w3.org/2000/svg">
<path d="M29.7029 34.3436C29.4361 34.6143 29.2318 34.941 29.1046 35.3005C28.9773 35.66 28.9302 36.0433 28.9666 36.4232L28.9539 36.4104C28.9913 36.8576 28.9316 37.3077 28.7787 37.7291C28.6259 38.1506 28.3838 38.5334 28.0691 38.8508C27.7545 39.1681 27.3751 39.4123 26.9572 39.5665C26.5393 39.7206 26.0931 39.781 25.6498 39.7432L25.6624 39.756C25.1321 39.7062 24.5994 39.8226 24.1371 40.0893C23.6747 40.356 23.3052 40.7601 23.0789 41.2465C22.8525 41.7328 22.7804 42.2777 22.8724 42.8068C22.9643 43.3361 23.2159 43.8238 23.5926 44.2035C23.9694 44.5832 24.4532 44.8364 24.9779 44.9287C25.5026 45.021 26.0428 44.9477 26.5247 44.719C27.0067 44.4902 27.4069 44.1171 27.671 43.6506C27.935 43.184 28.05 42.6466 28.0001 42.1117L28.0135 42.1245C27.9761 41.6773 28.0358 41.2273 28.1886 40.8058C28.3415 40.3843 28.5837 40.0015 28.8983 39.6842C29.2129 39.3669 29.5924 39.1226 30.0102 38.9684C30.4281 38.8143 30.8743 38.754 31.3177 38.7918L31.3043 38.779C31.7375 38.8183 32.1736 38.7466 32.572 38.5707C32.9704 38.3947 33.3185 38.1202 33.5837 37.7725C33.8489 37.4248 34.0229 37.0151 34.0894 36.5815C34.1559 36.148 34.1128 35.7045 33.9642 35.2922C33.8155 34.8799 33.566 34.5121 33.2389 34.2229C32.9118 33.9337 32.5176 33.7325 32.0929 33.638C31.6681 33.5434 31.2266 33.5584 30.8092 33.6818C30.3917 33.8052 30.012 34.0328 29.705 34.3436H29.7029Z" fill="#080829"/>
<path d="M24.5102 38.0815L24.4968 38.0687C24.8736 38.107 25.2541 38.0604 25.6109 37.9321C25.9677 37.8039 26.2917 37.5974 26.5596 37.3273C26.8275 37.0573 27.0326 36.7306 27.16 36.3708C27.2874 36.0111 27.3339 35.6273 27.2963 35.2472L27.3096 35.26C27.2722 34.8127 27.3319 34.3627 27.4848 33.9412C27.6376 33.5198 27.8798 33.137 28.1944 32.8196C28.509 32.5023 28.8885 32.258 29.3063 32.1039C29.7242 31.9498 30.1704 31.8895 30.6138 31.9272L30.6004 31.9145C31.1308 31.9647 31.6636 31.8487 32.1262 31.5822C32.5888 31.3158 32.9587 30.9119 33.1854 30.4257C33.412 29.9394 33.4845 29.3944 33.3928 28.8651C33.3012 28.3358 33.0498 27.8479 32.6731 27.468C32.2965 27.088 31.8128 26.8345 31.288 26.7421C30.7632 26.6496 30.2229 26.7227 29.7409 26.9513C29.2588 27.18 28.8583 27.553 28.5942 28.0196C28.33 28.4862 28.215 29.0237 28.2648 29.5587L28.2522 29.5452C28.2897 29.9924 28.23 30.4425 28.0772 30.8641C27.9245 31.2856 27.6823 31.6684 27.3676 31.9858C27.053 32.3031 26.6735 32.5474 26.2555 32.7015C25.8376 32.8556 25.3914 32.9158 24.948 32.8779L24.9607 32.8914C24.5838 32.8531 24.2033 32.8998 23.8465 33.028C23.4898 33.1562 23.1657 33.3628 22.8978 33.6328C22.6299 33.9028 22.4248 34.2295 22.2974 34.5893C22.1701 34.9491 22.1235 35.3328 22.1612 35.7129L22.1486 35.7002C22.1859 36.1473 22.126 36.5973 21.9731 37.0188C21.8202 37.4402 21.5781 37.8229 21.2635 38.1402C20.9489 38.4575 20.5695 38.7018 20.1516 38.856C19.7339 39.0101 19.2877 39.0705 18.8444 39.0329L18.8571 39.0457C18.3267 38.9954 17.7938 39.1114 17.3312 39.3779C16.8686 39.6444 16.4988 40.0482 16.2721 40.5345C16.0454 41.0208 15.9729 41.5657 16.0647 42.095C16.1563 42.6243 16.4076 43.1122 16.7843 43.4921C17.161 43.8721 17.6447 44.1256 18.1695 44.218C18.6943 44.3105 19.2345 44.2374 19.7166 44.0088C20.1987 43.7802 20.5991 43.4071 20.8633 42.9405C21.1274 42.4739 21.2424 41.9365 21.1926 41.4015L21.206 41.4143C21.1686 40.967 21.2283 40.517 21.3812 40.0955C21.534 39.674 21.7762 39.2913 22.0908 38.9739C22.4054 38.6566 22.7849 38.4123 23.2027 38.2582C23.6206 38.1041 24.0668 38.0437 24.5102 38.0815Z" fill="#080829"/>
<path d="M19.7926 36.6565C20.0594 36.3858 20.2637 36.0591 20.3908 35.6996C20.518 35.3401 20.5649 34.9567 20.5282 34.5769L20.5416 34.5897C20.5041 34.1424 20.5639 33.6922 20.7168 33.2706C20.8697 32.849 21.112 32.4661 21.4268 32.1488C21.7416 31.8314 22.1213 31.5871 22.5393 31.4331C22.9573 31.2791 23.4037 31.2189 23.8471 31.2569L23.8337 31.2441C24.364 31.2943 24.8966 31.1782 25.359 30.9117C25.8214 30.6453 26.1911 30.2416 26.4176 29.7554C26.6441 29.2693 26.7165 28.7246 26.6248 28.1955C26.5332 27.6664 26.2819 27.1786 25.9053 26.7988C25.5288 26.4191 25.0453 26.1656 24.5208 26.0731C23.9961 25.9807 23.4561 26.0537 22.9741 26.2822C22.4922 26.5107 22.0918 26.8835 21.8277 27.3499C21.5636 27.8163 21.4485 28.3536 21.4982 28.8884L21.4855 28.8756C21.5229 29.3228 21.4632 29.7728 21.3104 30.1943C21.1575 30.6158 20.9154 30.9986 20.6007 31.3159C20.2862 31.6332 19.9066 31.8775 19.4888 32.0316C19.0709 32.1857 18.6247 32.2461 18.1813 32.2083L18.194 32.2211C17.7608 32.1819 17.3248 32.2537 16.9264 32.4297C16.528 32.6057 16.1801 32.8803 15.915 33.2281C15.6498 33.5758 15.4759 33.9855 15.4095 34.419C15.343 34.8526 15.3862 35.296 15.5349 35.7083C15.6837 36.1206 15.9331 36.4883 16.2602 36.7774C16.5874 37.0666 16.9816 37.2677 17.4063 37.3623C17.831 37.4568 18.2725 37.4417 18.6899 37.3183C19.1073 37.1949 19.4871 36.9673 19.794 36.6565H19.7926Z" fill="#080829"/>
<path d="M41.5977 29.5752H43.6883V39.8368H41.5977V29.5752Z" fill="#080829"/>
<path d="M44.8722 36.3228C44.8692 35.5853 45.0833 34.8636 45.4874 34.249C45.8914 33.6345 46.4672 33.1546 47.1419 32.8703C47.8165 32.5861 48.5596 32.5102 49.277 32.6523C49.9945 32.7943 50.654 33.148 51.172 33.6684C51.69 34.1887 52.0432 34.8525 52.1869 35.5756C52.3306 36.2987 52.2584 37.0485 51.9792 37.7301C51.7001 38.4116 51.2267 38.9944 50.619 39.4043C50.0114 39.8144 49.2967 40.0333 48.5656 40.0333C48.0802 40.0388 47.5987 39.9468 47.149 39.7625C46.6994 39.5781 46.2907 39.3053 45.9468 38.9598C45.603 38.6144 45.3308 38.2032 45.1463 37.7505C44.9618 37.2977 44.8686 36.8123 44.8722 36.3228ZM50.1684 36.3228C50.1597 36.0049 50.0582 35.6967 49.8768 35.4366C49.6954 35.1766 49.442 34.9763 49.1482 34.8608C48.8545 34.7452 48.5336 34.7195 48.2255 34.7869C47.9174 34.8544 47.6359 35.0119 47.416 35.2398C47.1962 35.4677 47.0479 35.756 46.9896 36.0685C46.9313 36.381 46.9657 36.7039 47.0884 36.9969C47.211 37.2897 47.4165 37.5397 47.6793 37.7155C47.9421 37.8912 48.2503 37.9849 48.5656 37.9849C48.7815 37.9907 48.9962 37.9513 49.1963 37.8692C49.3963 37.7872 49.5774 37.6642 49.728 37.5081C49.8786 37.3519 49.9954 37.1659 50.0713 36.9619C50.1471 36.758 50.1802 36.5403 50.1684 36.3228Z" fill="#080829"/>
<path d="M60.5912 32.8084V39.4824C60.5912 41.8438 58.7652 42.8421 56.9118 42.8421C56.2592 42.8914 55.6059 42.7584 55.0232 42.4578C54.4407 42.1572 53.9514 41.7006 53.6091 41.1381L55.3928 40.0979C55.5367 40.3912 55.7659 40.6331 56.0498 40.7913C56.3338 40.9495 56.6588 41.0165 56.9815 40.9833C57.1878 41.0121 57.3978 40.9938 57.5961 40.9297C57.7943 40.8656 57.9758 40.7574 58.127 40.613C58.2782 40.4686 58.3953 40.2918 58.4695 40.0955C58.5439 39.8994 58.5734 39.6888 58.5562 39.4795V38.837C58.3113 39.1391 57.9997 39.3791 57.6464 39.5378C57.2929 39.6965 56.9075 39.7694 56.5212 39.7508C55.6017 39.7215 54.7296 39.3326 54.0895 38.6662C53.4494 37.9998 53.0914 37.1083 53.0914 36.1805C53.0914 35.2527 53.4494 34.3612 54.0895 33.6949C54.7296 33.0285 55.6017 32.6395 56.5212 32.6103C56.9075 32.5916 57.2929 32.6645 57.6464 32.8232C57.9997 32.9819 58.3113 33.2219 58.5562 33.5241V32.807L60.5912 32.8084ZM58.5569 36.1816C58.571 35.8418 58.4838 35.5054 58.3068 35.216C58.1297 34.9264 57.8708 34.697 57.5634 34.5572C57.256 34.4174 56.9142 34.3736 56.5819 34.4314C56.2496 34.4892 55.942 34.6459 55.6988 34.8816C55.4556 35.1172 55.2878 35.4207 55.2171 35.7533C55.1464 36.0859 55.176 36.4322 55.3021 36.7477C55.4282 37.0631 55.6449 37.3333 55.9246 37.5235C56.2042 37.7136 56.5338 37.815 56.871 37.8146C57.0907 37.8301 57.3111 37.799 57.5181 37.7233C57.7251 37.6476 57.9141 37.529 58.0729 37.3752C58.2317 37.2213 58.3569 37.0356 58.4402 36.83C58.5236 36.6245 58.5633 36.4036 58.5569 36.1816Z" fill="#080829"/>
<path d="M61.7752 36.3228C61.7724 35.5853 61.9865 34.8636 62.3905 34.249C62.7946 33.6345 63.3704 33.1546 64.045 32.8703C64.7196 32.5861 65.4627 32.5102 66.1801 32.6523C66.8975 32.7943 67.557 33.148 68.075 33.6684C68.593 34.1887 68.9463 34.8525 69.09 35.5756C69.2337 36.2987 69.1614 37.0485 68.8823 37.7301C68.6032 38.4116 68.1299 38.9944 67.5222 39.4043C66.9145 39.8144 66.1998 40.0333 65.4687 40.0333C64.9834 40.0388 64.5018 39.9468 64.0522 39.7625C63.6025 39.5781 63.1938 39.3053 62.85 38.9598C62.5061 38.6144 62.2339 38.2032 62.0494 37.7505C61.8649 37.2977 61.7717 36.8123 61.7752 36.3228ZM67.0715 36.3228C67.0627 36.0049 66.9614 35.6967 66.7799 35.4366C66.5984 35.1766 66.345 34.9763 66.0514 34.8608C65.7576 34.7452 65.4367 34.7195 65.1286 34.7869C64.8205 34.8544 64.5389 35.0119 64.3191 35.2398C64.0993 35.4677 63.951 35.756 63.8928 36.0685C63.8345 36.381 63.8687 36.7039 63.9914 36.9969C64.1141 37.2897 64.3197 37.5397 64.5824 37.7155C64.8451 37.8912 65.1535 37.9849 65.4687 37.9849C65.6846 37.9907 65.8993 37.9513 66.0994 37.8692C66.2995 37.7872 66.4805 37.6642 66.6311 37.5081C66.7817 37.3519 66.8986 37.1659 66.9744 36.9619C67.0501 36.758 67.0832 36.5403 67.0715 36.3228Z" fill="#080829"/>
<path d="M70.1368 30.9249C70.1368 30.6746 70.2104 30.43 70.3482 30.222C70.4861 30.0139 70.6817 29.8517 70.9112 29.7559C71.1407 29.6602 71.3927 29.6352 71.6362 29.684C71.8791 29.7328 72.1029 29.8533 72.2782 30.0302C72.4535 30.2071 72.5731 30.4326 72.6217 30.678C72.6696 30.9235 72.6449 31.1779 72.5499 31.409C72.4549 31.6402 72.2944 31.8379 72.0882 31.9769C71.8819 32.1159 71.6391 32.1901 71.3913 32.1901C71.0597 32.1868 70.7423 32.0524 70.5079 31.8159C70.2734 31.5793 70.1401 31.2594 70.1368 30.9249ZM70.348 32.8085H72.4394V39.8375H70.3452L70.348 32.8085Z" fill="#080829"/>
<path d="M81.4663 36.323C81.4903 36.7875 81.4234 37.2523 81.2685 37.6906C81.1144 38.1289 80.8751 38.532 80.566 38.8769C80.2563 39.2216 79.8825 39.5014 79.4651 39.6999C79.0477 39.8983 78.5958 40.0117 78.1354 40.0335C77.7483 40.0548 77.3604 39.9889 77.0014 39.8405C76.6424 39.6922 76.3208 39.4651 76.0596 39.1758V42.6484H73.969V32.8085H76.0596V33.4688C76.3208 33.1797 76.6431 32.9528 77.0021 32.8046C77.3611 32.6563 77.7483 32.5905 78.1354 32.6118C78.5965 32.6335 79.0484 32.7468 79.4651 32.9453C79.8825 33.1438 80.257 33.4236 80.566 33.7685C80.8758 34.1134 81.1151 34.5167 81.2693 34.9551C81.4234 35.3935 81.491 35.8584 81.4663 36.323ZM79.3757 36.323C79.3673 35.9941 79.2631 35.6748 79.0766 35.4053C78.8893 35.1357 78.6275 34.9278 78.3234 34.8077C78.02 34.6875 77.6878 34.6603 77.3689 34.7296C77.05 34.7988 76.7586 34.9614 76.5305 35.197C76.3025 35.4327 76.149 35.7308 76.0885 36.0541C76.0279 36.3775 76.0631 36.7116 76.1898 37.0148C76.3165 37.3181 76.5291 37.5768 76.8008 37.7588C77.0725 37.9407 77.3921 38.0377 77.718 38.0376C77.9419 38.0477 78.1657 38.0099 78.3741 37.9267C78.5824 37.8435 78.7711 37.7168 78.928 37.5549C79.0843 37.393 79.2054 37.1996 79.2821 36.9873C79.3595 36.775 79.3912 36.5486 79.3757 36.323Z" fill="#080829"/>
<path d="M87.9177 37.7282C87.9177 39.3448 86.5247 40.0335 85.0197 40.0335C84.4116 40.0891 83.8013 39.9594 83.267 39.6612C82.7327 39.3629 82.2991 38.9099 82.0232 38.3608L83.8344 37.3206C83.9076 37.5745 84.0652 37.7953 84.2799 37.9463C84.4953 38.0971 84.7558 38.1691 85.0169 38.1499C85.5181 38.1499 85.7694 37.9951 85.7694 37.7147C85.7694 36.9408 82.3407 37.349 82.3407 34.9173C82.3407 33.3844 83.6232 32.6119 85.0725 32.6119C85.6174 32.5945 86.1566 32.7249 86.6345 32.9893C87.1125 33.2539 87.5116 33.6428 87.7896 34.1157L86.0059 35.0855C85.9278 34.9014 85.7976 34.7446 85.6314 34.6346C85.4653 34.5246 85.271 34.4664 85.0725 34.4671C84.71 34.4671 84.4869 34.6091 84.4869 34.8605C84.4897 35.6621 87.9177 35.1274 87.9177 37.7282Z" fill="#080829"/>
<path d="M95.5545 32.8086V39.8376H93.4638V39.1766C93.2224 39.4683 92.9162 39.6981 92.5699 39.8472C92.2236 39.9963 91.8477 40.0604 91.4718 40.0343C90.064 40.0343 88.8673 39.0225 88.8673 37.1233V32.8086H90.9579V36.8144C90.9403 36.9818 90.9593 37.1511 91.0135 37.3103C91.067 37.4697 91.155 37.6152 91.2705 37.7368C91.3859 37.8585 91.526 37.9533 91.6815 38.0147C91.8364 38.0761 92.0032 38.1026 92.1701 38.0924C92.9366 38.0924 93.466 37.643 93.466 36.6447V32.8107L95.5545 32.8086Z" fill="#080829"/>
<path d="M107.542 35.5213V39.8367H105.451V35.7037C105.451 35.0008 105.117 34.5514 104.448 34.5514C103.752 34.5514 103.361 35.0435 103.361 35.8727V39.8367H101.271V35.7037C101.271 35.0008 100.937 34.5514 100.267 34.5514C99.5703 34.5514 99.1803 35.0435 99.1803 35.8727V39.8367H97.0897V32.8077H99.1803V33.4538C99.3971 33.1671 99.6815 32.9398 100.007 32.7926C100.334 32.6454 100.692 32.5829 101.048 32.611C101.405 32.5933 101.762 32.6695 102.082 32.8319C102.401 32.9945 102.674 33.2378 102.873 33.5382C103.105 33.2239 103.412 32.974 103.765 32.8118C104.118 32.6497 104.507 32.5806 104.894 32.611C106.494 32.6117 107.542 33.764 107.542 35.5213Z" fill="#080829"/>
<path d="M109.31 32.7649C110.167 32.7649 110.862 32.0643 110.862 31.2001C110.862 30.3359 110.167 29.6353 109.31 29.6353C108.454 29.6353 107.759 30.3359 107.759 31.2001C107.759 32.0643 108.454 32.7649 109.31 32.7649Z" fill="#080829"/>
</svg>
