<svg width="126" height="71" viewBox="0 0 126 71" fill="none" xmlns="http://www.w3.org/2000/svg">
<path d="M62.7827 39.3158H59.1584V29.5973H62.7827V39.3158ZM59.5123 38.9608H62.4287V29.9523H59.5123V38.9608ZM67.8255 39.3158H64.2742V29.5973H71.694C72.7572 29.511 73.8155 29.8103 74.6769 30.4408C75.0479 30.7811 75.3353 31.2028 75.5172 31.6728C75.6984 32.1429 75.7692 32.6487 75.7239 33.1509C75.777 34.0185 75.5016 34.8742 74.953 35.5471C74.3039 36.294 73.2237 36.6788 71.7428 36.6923C71.3698 36.7023 68.5744 36.6923 67.8276 36.6923L67.8255 39.3158ZM64.626 38.9608H67.4716V36.3338H67.6493C67.6854 36.3338 71.3146 36.3451 71.7343 36.3338C73.114 36.3217 74.1057 35.9788 74.6854 35.3092C75.1739 34.7004 75.4159 33.9299 75.365 33.1501C75.4082 32.7003 75.348 32.2464 75.1887 31.8237C75.0287 31.401 74.7746 31.0208 74.4448 30.7127C73.6463 30.1377 72.6687 29.8677 71.689 29.9516H64.6281L64.626 38.9608ZM70.9422 34.5091H67.4475V31.8636H70.9656C71.2148 31.829 71.4689 31.8582 71.7039 31.9485C71.9396 32.0387 72.1477 32.1871 72.3105 32.3798C72.4585 32.6262 72.5279 32.9116 72.5102 33.1984C72.5236 33.4647 72.4663 33.7299 72.3438 33.9666C72.176 34.1696 71.9587 34.3259 71.7131 34.4204C71.4682 34.5149 71.2027 34.5444 70.9422 34.5062V34.5091ZM67.8014 34.1541H70.9422C71.5227 34.1541 71.8823 34.0327 72.0416 33.7828C72.1293 33.6011 72.169 33.3999 72.1569 33.1984C72.1725 32.9869 72.1265 32.7754 72.0253 32.5892L72.021 32.5828C71.8526 32.3343 71.5177 32.2186 70.9656 32.2186H67.8014V34.1541ZM82.1831 39.4592C79.0048 39.4592 77.1077 38.6675 76.385 37.0395C76.2668 36.7251 76.1861 36.3975 76.1458 36.064L76.1146 35.8595H79.896L79.9208 36.0086C79.9498 36.16 80.0142 36.3025 80.1077 36.4247C80.257 36.6057 80.7554 36.9096 82.409 36.9096C84.3966 36.9096 84.3966 36.5596 84.3966 36.3714C84.3966 36.054 84.1666 35.9454 82.5456 35.7722L82.2376 35.7431C81.6275 35.6855 80.8559 35.6124 80.5034 35.5819C77.5303 35.3121 76.2031 34.3855 76.2031 32.5786C76.2031 30.6808 78.4619 29.4546 81.958 29.4546C84.81 29.4546 86.6476 30.2086 87.4185 31.6975C87.6011 32.0438 87.7243 32.4188 87.7816 32.8065L87.8064 33.006H84.0208L84.0052 32.8456C83.9903 32.7202 83.9372 32.6025 83.8523 32.509C83.7107 32.3187 83.2633 32.0042 81.8745 32.0042C80.1693 32.0042 79.9342 32.2229 79.9342 32.4586C79.9342 32.7731 80.4729 32.8846 82.1994 33.0699C82.9193 33.1288 84.0767 33.2481 84.4731 33.2964C86.9655 33.5676 88.0775 34.4715 88.0775 36.228C88.0782 37.7012 87.0554 39.4592 82.1831 39.4592ZM76.528 36.2145C76.5634 36.4487 76.6243 36.6782 76.7099 36.8989C77.3682 38.3821 79.1591 39.1042 82.1831 39.1042C84.7116 39.1042 87.7264 38.6072 87.7264 36.228C87.7264 34.671 86.7425 33.8999 84.4356 33.6493C84.0392 33.601 82.8889 33.4824 82.1704 33.4228C80.3299 33.2226 79.5817 33.1161 79.5817 32.4586C79.5817 31.7784 80.388 31.6492 81.8759 31.6492C83.0517 31.6492 83.8112 31.8622 84.1333 32.2917C84.2211 32.3976 84.2876 32.5197 84.3287 32.651H87.3966C87.335 32.3765 87.2373 32.1112 87.1063 31.8622C86.3985 30.4997 84.6692 29.8096 81.9594 29.8096C78.6785 29.8096 76.5584 30.8966 76.5584 32.5786C76.5584 34.1832 77.7484 34.9756 80.5359 35.2283C80.8899 35.2588 81.6607 35.332 82.2723 35.3902L82.5824 35.4193C84.088 35.5783 84.752 35.6777 84.752 36.3714C84.752 37.1183 83.8933 37.2646 82.4104 37.2646C81.0385 37.2646 80.1721 37.058 79.8373 36.6511C79.7339 36.5214 79.6561 36.3733 79.6079 36.2145H76.528ZM94.8023 39.4471C91.1072 39.4471 89.0686 37.9483 89.0686 35.2262V29.5973H92.6447V35.2262C92.6447 36.1598 93.4778 36.6952 94.9297 36.6952C96.3171 36.6952 97.1786 36.1364 97.1786 35.2383V29.5973H100.718V35.5244C100.721 38.0172 98.5631 39.4471 94.8001 39.4471H94.8023ZM89.4225 29.9523V35.2262C89.4225 38.5902 92.7905 39.0921 94.8023 39.0921C96.882 39.0921 100.37 38.6285 100.37 35.5244V29.9523H97.5382V35.2383C97.5382 36.3387 96.516 37.0502 94.9353 37.0502C93.2832 37.0502 92.2964 36.3686 92.2964 35.2262V29.9523H89.4225ZM115.716 39.3158H112.341V34.928L110.427 39.3158H107.483L105.589 34.9365V39.3158H102.202V29.5973H106.657L108.972 34.9557L111.398 29.5973H115.72L115.716 39.3158ZM112.695 38.9608H115.362V29.9523H111.623L108.96 35.8304L106.422 29.9523H102.553V38.9608H105.232V33.2282L107.709 38.9629H110.187L112.691 33.2368L112.695 38.9608ZM13.4877 29.7748H10.264V39.1383H19.1718V36.6455H13.4877V29.7748ZM25.6785 29.5618C21.5637 29.5618 19.3997 31.5179 19.3997 34.3898C19.3997 37.6345 21.6713 39.2803 25.6785 39.2803C30.0899 39.2803 31.9452 37.3718 31.9452 34.3898C31.9452 31.3617 29.8521 29.5604 25.6785 29.5604V29.5618ZM25.6665 31.995C25.9466 31.9937 26.2265 32.01 26.5046 32.044L22.9008 35.6586C22.7303 35.2717 22.6471 34.8517 22.6573 34.4289C22.6573 32.9599 23.3949 31.9936 25.6665 31.9936V31.995ZM25.6785 36.8854C25.4086 36.8867 25.1389 36.8715 24.8708 36.84L28.4809 33.219C28.6451 33.5995 28.7237 34.0116 28.711 34.426C28.711 35.8552 28.0315 36.884 25.6785 36.884V36.8854ZM38.3323 35.6075H41.6501C41.6012 35.8384 41.4994 36.0547 41.3528 36.2393C40.6649 36.8014 39.7871 37.0749 38.9028 37.0026C38.4577 37.0504 38.0077 37.0016 37.583 36.8596C37.1583 36.7177 36.7691 36.4858 36.4416 36.1797C36.1061 35.6862 35.9468 35.0935 35.9893 34.4977C35.935 33.8735 36.1083 33.2506 36.477 32.7447C36.9406 32.2193 37.7257 31.9928 38.8795 31.9928C39.6136 31.9319 40.3468 32.121 40.9606 32.5296C41.1541 32.6837 41.2987 32.8909 41.3768 33.126H44.4539C44.4316 32.7387 44.3387 32.3587 44.18 32.0049C43.4431 30.5018 41.7301 29.6072 38.8172 29.6072C36.2837 29.6072 34.5835 30.3826 33.6441 31.5519C33.0237 32.3964 32.7053 33.4259 32.7402 34.4743C32.7 35.5464 33.0102 36.6022 33.6236 37.4811C34.5516 38.6881 36.2045 39.2817 38.1907 39.2817C39.5113 39.3741 40.8228 39.0031 41.9007 38.2323L41.9842 39.1383H44.5403V33.5918H38.3323V35.6075ZM51.7952 29.5597C47.6811 29.5597 45.5164 31.5157 45.5164 34.3877C45.5164 37.6324 47.7873 39.2781 51.7952 39.2781C56.2073 39.2781 58.0626 37.3697 58.0626 34.3877C58.0626 31.3616 55.9695 29.5604 51.7952 29.5604V29.5597ZM51.7839 31.9928C52.0566 31.9921 52.3291 32.0077 52.6 32.0397L49.0105 35.6422C48.8452 35.2597 48.7648 34.8457 48.7747 34.4289C48.7719 32.9599 49.5123 31.9936 51.7839 31.9936V31.9928ZM51.7952 36.8833C51.5181 36.8845 51.2413 36.8684 50.9663 36.835L54.5884 33.2013C54.7588 33.5868 54.8404 34.0059 54.827 34.4274C54.8284 35.8552 54.1517 36.884 51.7952 36.884V36.8833Z" fill="#080829"/>
</svg>
