<svg width="126" height="71" viewBox="0 0 126 71" fill="none" xmlns="http://www.w3.org/2000/svg">
<path d="M7.73108 21.3335V46.5051H119.356V21.3335H7.73108ZM117.948 45.0851H60.9312V22.7535H117.948V45.0851Z" fill="#080829"/>
<path d="M13.6644 38.1363V29.7676H16.5279V35.9077H21.5791V38.1363H13.6644Z" fill="white"/>
<path d="M32.8684 33.8932C32.8684 36.5578 31.2199 38.264 27.2984 38.264C23.7366 38.264 21.7178 36.7928 21.7178 33.8932C21.7178 31.3237 23.6423 29.5757 27.2984 29.5757C31.0115 29.5757 32.8684 31.1853 32.8684 33.8932ZM29.9937 33.9251C29.9937 32.7181 29.4967 31.7504 27.2878 31.7504C25.269 31.7504 24.613 32.6138 24.613 33.9251C24.613 35.2578 25.2148 36.1212 27.297 36.1212C29.3925 36.1212 29.9937 35.2046 29.9937 33.9251Z" fill="white"/>
<path d="M41.7264 38.136L41.6525 37.3252C40.6946 38.0148 39.5286 38.3466 38.3546 38.2638C36.5899 38.2638 35.1202 37.7306 34.2959 36.6543C33.7523 35.8684 33.4777 34.9251 33.5138 33.9676C33.483 33.0302 33.767 32.1097 34.3198 31.3555C35.1539 30.3111 36.6659 29.6182 38.9171 29.6182C41.5067 29.6182 43.0286 30.4176 43.6832 31.7609C43.8238 32.0773 43.9063 32.4167 43.9268 32.7628H41.1872C41.1182 32.5525 40.9897 32.3671 40.8176 32.2295C40.2719 31.8646 39.6203 31.6958 38.9677 31.7503C38.585 31.7035 38.1968 31.7391 37.8288 31.8549C37.4607 31.9708 37.1213 32.164 36.8328 32.422C36.5052 32.8742 36.3514 33.431 36.3999 33.9889C36.3619 34.5212 36.5033 35.0509 36.8011 35.492C37.0922 35.7656 37.4383 35.9727 37.8157 36.0997C38.1932 36.2266 38.5933 36.2702 38.9889 36.2276C39.7747 36.292 40.5548 36.0476 41.166 35.5452C41.2974 35.3797 41.3879 35.185 41.43 34.9772H38.482V33.1788H43.9986V38.136H41.7264Z" fill="white"/>
<path d="M55.9525 33.8932C55.9525 36.5578 54.3032 38.264 50.3824 38.264C46.8206 38.264 44.8018 36.7928 44.8018 33.8932C44.8018 31.3237 46.7263 29.5757 50.3824 29.5757C54.0927 29.5757 55.9525 31.1853 55.9525 33.8932ZM53.0777 33.9251C53.0777 32.7181 52.5807 31.7504 50.3719 31.7504C48.353 31.7504 47.697 32.6138 47.697 33.9251C47.697 35.2578 48.2995 36.1212 50.381 36.1212C52.4759 36.1212 53.0777 35.2046 53.0777 33.9251Z" fill="white"/>
<path d="M65.7544 38.1041V29.7354H67.7957V38.1041H65.7544Z" fill="#080829"/>
<path d="M78.2784 34.6073C77.761 35.2897 76.8706 35.6013 75.6155 35.6092C75.3508 35.6092 71.8418 35.5985 71.8418 35.5985V38.1041H69.8441V29.7353H75.6162C76.0787 29.686 76.5468 29.7355 76.9888 29.8805C77.4316 30.0256 77.8384 30.2631 78.184 30.5774C78.6402 31.1768 78.8619 31.9241 78.8077 32.6776C78.8542 33.3629 78.6676 34.0437 78.2784 34.6073ZM76.6404 31.8788C76.4292 31.5593 75.9738 31.3818 75.203 31.3818H71.8313V33.9293H75.1812C76.0054 33.9293 76.4398 33.7589 76.6404 33.428C76.76 33.1949 76.8107 32.9325 76.7882 32.6712C76.8058 32.3987 76.7551 32.1261 76.6404 31.8788Z" fill="#080829"/>
<path d="M84.6945 38.2323C80.9314 38.2323 79.7798 36.8123 79.7798 35.4072H81.9147C81.9147 36.1001 82.8552 36.6227 84.7895 36.6227C86.7126 36.6227 87.2201 36.2812 87.2201 35.7267C87.2201 35.1083 86.84 34.9166 85.0535 34.7142C84.7015 34.6823 83.7435 34.5651 83.3838 34.5119C80.8497 34.2236 79.8741 33.4668 79.8741 32.1128C79.8741 30.6843 81.3016 29.6079 84.3981 29.6079C87.7593 29.6079 89.0489 30.9406 89.0489 32.3265H86.9371C86.9371 31.6229 86.1445 31.2175 84.2736 31.2175C82.3498 31.2175 81.938 31.4837 81.938 32.0063C81.938 32.5501 82.3603 32.7206 84.4017 32.9655C84.8669 33.0301 85.9024 33.1473 86.1875 33.1785C88.3443 33.4021 89.3164 34.191 89.3164 35.5875C89.3128 37.2511 87.8332 38.2323 84.6945 38.2323Z" fill="#080829"/>
<path d="M95.3278 38.2213C92.5699 38.2213 90.7728 37.1229 90.7728 34.8133V29.7354H92.7909V34.8417C92.7909 35.8974 93.6476 36.6003 95.4123 36.6003C97.0081 36.6003 97.9597 35.94 97.9597 34.8417V29.7354H99.9575V35.0028C99.9575 37.1023 98.2871 38.2213 95.3278 38.2213Z" fill="#080829"/>
<path d="M110.896 38.1041V32.5178L108.307 38.1041H106.341L103.825 32.5178V38.1041H101.925V29.7354H104.5L107.353 36.1104L110.27 29.7354H112.805V38.1041H110.896Z" fill="#080829"/>
</svg>
