<svg width="126" height="71" viewBox="0 0 126 71" fill="none" xmlns="http://www.w3.org/2000/svg">
<path d="M30.6145 28.918V26.2153H22.1661V44.7845H30.6145V42.0818C28.8839 42.0818 27.2241 41.3883 26.0003 40.154C24.7766 38.9196 24.0891 37.2455 24.0891 35.4999C24.0891 33.7543 24.7766 32.0801 26.0003 30.8458C27.2241 29.6115 28.8839 28.918 30.6145 28.918Z" fill="#080829"/>
<path d="M30.6147 28.918V42.0818C32.3455 42.0818 34.0052 41.3883 35.229 40.1539C36.4528 38.9196 37.1402 37.2455 37.1402 35.4999C37.1402 33.7543 36.4528 32.0801 35.229 30.8458C34.0052 29.6114 32.3455 28.918 30.6147 28.918Z" fill="#080829"/>
<path d="M41.8811 30.5718H43.7725V39.761H41.8811V30.5718Z" fill="#080829"/>
<path d="M44.832 36.613C44.832 35.9519 45.0266 35.3057 45.3912 34.7562C45.7556 34.2067 46.2737 33.7788 46.8796 33.5267C47.4856 33.2746 48.1521 33.2096 48.7947 33.34C49.4373 33.4704 50.027 33.7902 50.4892 34.259C50.9513 34.7279 51.2651 35.3245 51.3907 35.9734C51.5162 36.6224 51.448 37.2942 51.1945 37.904C50.9411 38.5136 50.5139 39.0337 49.9671 39.3982C49.4203 39.7628 48.7785 39.9554 48.123 39.9516C47.6883 39.9551 47.2573 39.871 46.8552 39.7041C46.4531 39.5373 46.0881 39.2912 45.7815 38.9803C45.4751 38.6693 45.2332 38.2997 45.0701 37.8932C44.9071 37.4867 44.8261 37.0515 44.832 36.613ZM49.5732 36.613C49.5657 36.328 49.4751 36.0514 49.3127 35.8181C49.1502 35.5848 48.9233 35.4048 48.66 35.301C48.3968 35.197 48.109 35.1737 47.8327 35.2339C47.5565 35.2941 47.3039 35.4351 47.1066 35.6393C46.9093 35.8436 46.7761 36.1019 46.7237 36.382C46.6711 36.6622 46.7018 36.9518 46.8116 37.2145C46.9214 37.4772 47.1056 37.7015 47.3411 37.8591C47.5766 38.0168 47.8529 38.1009 48.1356 38.1011C48.3282 38.1049 48.5193 38.0686 48.6972 37.9944C48.8752 37.9204 49.036 37.81 49.1697 37.6704C49.3034 37.5307 49.4071 37.3647 49.4744 37.1828C49.5417 37.0009 49.571 36.8069 49.5606 36.613H49.5732Z" fill="#080829"/>
<path d="M58.8978 33.4652V39.4493C58.8978 41.5606 57.2585 42.4573 55.6004 42.4573C55.0155 42.5056 54.4288 42.3885 53.9064 42.1188C53.3841 41.8492 52.9467 41.4378 52.6434 40.9311L54.2386 40.0026C54.3678 40.2654 54.5734 40.4823 54.828 40.6243C55.0825 40.7663 55.374 40.8268 55.6634 40.7975C55.8478 40.8204 56.035 40.8019 56.2115 40.7434C56.3879 40.6848 56.5494 40.5878 56.6844 40.4589C56.8194 40.33 56.9244 40.1728 56.992 39.9983C57.0597 39.8237 57.0883 39.6363 57.0757 39.4493V38.8706C56.8556 39.1398 56.5763 39.3534 56.26 39.4948C55.9438 39.6361 55.5992 39.7011 55.2536 39.6846C54.4176 39.6846 53.6157 39.3496 53.0246 38.7533C52.4334 38.157 52.1012 37.3483 52.1012 36.5049C52.1012 35.6617 52.4334 34.8529 53.0246 34.2566C53.6157 33.6603 54.4176 33.3253 55.2536 33.3253C55.5992 33.3088 55.9438 33.3738 56.26 33.5151C56.5763 33.6564 56.8556 33.8701 57.0757 34.1393V33.5033L58.8978 33.4652ZM57.0757 36.4859C57.0883 36.1817 57.0103 35.8805 56.8519 35.6213C56.6934 35.3621 56.4618 35.1566 56.1866 35.0313C55.9115 34.9059 55.6055 34.8665 55.3079 34.9181C55.0104 34.9695 54.7349 35.1096 54.5169 35.3204C54.2989 35.531 54.1485 35.8027 54.0847 36.1004C54.0211 36.3981 54.0472 36.708 54.1596 36.9907C54.2721 37.2733 54.4657 37.5155 54.7157 37.6862C54.9658 37.8569 55.2607 37.9483 55.5625 37.9485C55.7596 37.9628 55.9574 37.9353 56.1431 37.8678C56.3289 37.8002 56.4986 37.694 56.6412 37.5561C56.7838 37.4183 56.8962 37.2518 56.971 37.0675C57.0458 36.8831 57.0815 36.685 57.0757 36.4859Z" fill="#080829"/>
<path d="M59.9634 36.6131C59.9634 35.9525 60.1577 35.3067 60.5216 34.7575C60.8856 34.2084 61.4029 33.7804 62.0082 33.528C62.6133 33.2755 63.2792 33.2097 63.9214 33.339C64.5637 33.4684 65.1534 33.787 65.6162 34.2545C66.0788 34.7221 66.3935 35.3176 66.5205 35.9656C66.6476 36.6137 66.5811 37.2852 66.3296 37.8951C66.0781 38.5051 65.6529 39.0261 65.1077 39.3921C64.5626 39.7583 63.922 39.953 63.2671 39.9518C62.8315 39.956 62.3995 39.8725 61.9963 39.7061C61.5932 39.5397 61.227 39.2939 60.9193 38.983C60.6116 38.672 60.3686 38.3022 60.2044 37.8952C60.0403 37.4883 59.9583 37.0524 59.9634 36.6131ZM64.7045 36.6131C64.6971 36.3278 64.6064 36.051 64.4437 35.8175C64.281 35.5841 64.0536 35.4042 63.79 35.3005C63.5264 35.1967 63.2383 35.1737 62.9619 35.2345C62.6854 35.2952 62.4328 35.4369 62.2358 35.6417C62.0388 35.8465 61.9061 36.1055 61.8543 36.3861C61.8026 36.6667 61.8341 36.9563 61.9448 37.219C62.0556 37.4816 62.2408 37.7054 62.4772 37.8623C62.7135 38.0192 62.9904 38.1023 63.2734 38.1011C63.4659 38.105 63.657 38.0687 63.8349 37.9945C64.0129 37.9204 64.1737 37.8101 64.3074 37.6705C64.4411 37.5308 64.5448 37.3647 64.6121 37.1829C64.6794 37.0009 64.7087 36.807 64.6983 36.6131H64.7045Z" fill="#080829"/>
<path d="M67.4473 31.7799C67.4473 31.5561 67.5131 31.3372 67.6364 31.151C67.7597 30.9649 67.935 30.8198 68.14 30.7341C68.3451 30.6484 68.5708 30.626 68.7884 30.6697C69.0061 30.7134 69.2061 30.8211 69.3631 30.9795C69.52 31.1378 69.6269 31.3395 69.6702 31.5591C69.7135 31.7787 69.6913 32.0062 69.6063 32.2131C69.5214 32.4199 69.3775 32.5967 69.193 32.7211C69.0085 32.8454 68.7915 32.9119 68.5695 32.9119C68.2729 32.9085 67.9893 32.7882 67.7796 32.5766C67.5698 32.3651 67.4505 32.0791 67.4473 31.7799ZM67.6301 33.4651H69.5215V39.7608H67.6301V33.4651Z" fill="#080829"/>
<path d="M77.6167 36.6129C77.6378 37.0316 77.5766 37.4504 77.4372 37.8453C77.2971 38.24 77.081 38.6031 76.8016 38.9133C76.5221 39.2236 76.1842 39.4751 75.8084 39.6533C75.4318 39.8314 75.0249 39.9328 74.6096 39.9516C74.2569 39.9752 73.9036 39.9183 73.5763 39.7851C73.2489 39.6518 72.9554 39.4457 72.7182 39.1821V42.2918H70.8268V33.4651H72.7182V34.0565C72.9561 33.7937 73.2496 33.5885 73.577 33.4563C73.9043 33.3241 74.2576 33.2685 74.6096 33.2934C75.0228 33.3121 75.4289 33.413 75.8041 33.5899C76.1786 33.7669 76.5158 34.0167 76.7945 34.3249C77.074 34.6332 77.2901 34.9938 77.4316 35.3865C77.5724 35.779 77.6357 36.1957 77.6167 36.6129ZM75.7253 36.6129C75.7183 36.3176 75.6239 36.031 75.4557 35.7891C75.2875 35.5473 75.0524 35.3608 74.7799 35.2533C74.5068 35.1457 74.2084 35.1218 73.9226 35.1844C73.6361 35.2471 73.3742 35.3936 73.1708 35.6056C72.9667 35.8175 72.8287 36.0855 72.7752 36.376C72.7217 36.6664 72.7541 36.9664 72.8688 37.2383C72.9836 37.5102 73.175 37.7419 73.4193 37.9044C73.6642 38.067 73.9507 38.1531 74.2436 38.1519C74.4442 38.1604 74.6448 38.1262 74.8313 38.0513C75.0179 37.9763 75.1868 37.8625 75.3262 37.7173C75.4663 37.5719 75.574 37.3984 75.6429 37.2081C75.7119 37.0178 75.7401 36.815 75.7253 36.6129Z" fill="#080829"/>
<path d="M83.3733 37.872C83.3733 39.3219 82.1119 39.9388 80.7758 39.9388C80.2303 39.9882 79.6834 39.8717 79.204 39.6041C78.7254 39.3366 78.3375 38.9303 78.0897 38.438L79.7165 37.5095C79.7805 37.7364 79.9206 37.9341 80.1121 38.0695C80.3035 38.205 80.5358 38.27 80.7695 38.2536C81.2172 38.2536 81.4439 38.1136 81.4439 37.8592C81.4439 37.1661 78.3734 37.5349 78.3734 35.3537C78.3734 33.9801 79.5208 33.2933 80.8195 33.2933C81.3136 33.2709 81.8036 33.384 82.2393 33.6202C82.6743 33.8565 83.0375 34.2071 83.2909 34.6351L81.6649 35.5C81.5924 35.3359 81.4755 35.1964 81.3263 35.0982C81.1778 35 81.0039 34.9474 80.8258 34.9467C80.4985 34.9467 80.3028 35.0739 80.3028 35.2964C80.3028 36.0214 83.3733 35.5445 83.3733 37.872Z" fill="#080829"/>
<path d="M90.2266 33.4648V39.7606H88.3352V39.1692C88.1198 39.431 87.8474 39.6382 87.5391 39.774C87.2301 39.9099 86.8936 39.9706 86.5571 39.9514C85.2964 39.9514 84.218 39.042 84.218 37.3441V33.4648H86.1094V37.0579C86.0946 37.2081 86.1122 37.3598 86.1615 37.5025C86.2101 37.6451 86.2889 37.7753 86.3924 37.8842C86.4966 37.993 86.6226 38.0779 86.762 38.1329C86.9013 38.1878 87.0506 38.2116 87.2005 38.2026C87.8812 38.2026 88.3605 37.7956 88.3605 36.9307V33.4648H90.2266Z" fill="#080829"/>
<path d="M100.944 35.894V39.7605H99.0529V36.0594C99.0529 35.4234 98.7565 35.0292 98.1575 35.0292C97.5592 35.0292 97.1805 35.468 97.1805 36.212V39.7605H95.2891V36.0594C95.2891 35.4234 94.9927 35.0292 94.3937 35.0292C93.7947 35.0292 93.4167 35.468 93.4167 36.212V39.7605H91.5253V33.4648H93.4167V34.0435C93.6131 33.7879 93.8679 33.5854 94.1614 33.4544C94.4535 33.3234 94.7745 33.2679 95.0934 33.2931C95.4137 33.2763 95.7325 33.3436 96.0183 33.4886C96.3048 33.6335 96.5491 33.8511 96.7265 34.1198C96.9348 33.839 97.2093 33.6159 97.5261 33.4714C97.8422 33.3267 98.1899 33.2655 98.5362 33.2931C100.012 33.2931 100.944 34.3233 100.944 35.894Z" fill="#080829"/>
<path d="M102.533 33.4269C103.299 33.4269 103.92 32.8006 103.92 32.0279C103.92 31.2553 103.299 30.6289 102.533 30.6289C101.767 30.6289 101.146 31.2553 101.146 32.0279C101.146 32.8006 101.767 33.4269 102.533 33.4269Z" fill="#080829"/>
</svg>
