<svg width="178" height="100" viewBox="0 0 178 100" fill="none" xmlns="http://www.w3.org/2000/svg">
<path d="M88.693 55.374H83.573V41.686H88.693V55.374ZM84.073 54.874H88.193V42.186H84.073V54.874ZM95.817 55.374H90.8V41.686H101.282C102.784 41.5644 104.279 41.986 105.496 42.874C106.02 43.3533 106.426 43.9472 106.683 44.6093C106.939 45.2714 107.039 45.9838 106.975 46.691C107.05 47.913 106.661 49.1182 105.886 50.066C104.969 51.118 103.443 51.66 101.351 51.679C100.824 51.693 96.875 51.679 95.82 51.679L95.817 55.374ZM91.297 54.874H95.317V51.174H95.568C95.619 51.174 100.746 51.19 101.339 51.174C103.288 51.157 104.689 50.674 105.508 49.731C106.198 48.8735 106.54 47.7882 106.468 46.69C106.529 46.0564 106.444 45.4171 106.219 44.8218C105.993 44.2264 105.634 43.691 105.168 43.257C104.04 42.4471 102.659 42.0669 101.275 42.185H91.3L91.297 54.874ZM100.22 48.604H95.283V44.878H100.253C100.605 44.8293 100.964 44.8704 101.296 44.9975C101.629 45.1246 101.923 45.3336 102.153 45.605C102.362 45.952 102.46 46.354 102.435 46.758C102.454 47.1331 102.373 47.5065 102.2 47.84C101.963 48.1259 101.656 48.346 101.309 48.4791C100.963 48.6122 100.588 48.6538 100.22 48.6V48.604ZM95.783 48.104H100.22C101.04 48.104 101.548 47.933 101.773 47.581C101.897 47.3252 101.953 47.0418 101.936 46.758C101.958 46.4601 101.893 46.1622 101.75 45.9L101.744 45.891C101.506 45.541 101.033 45.378 100.253 45.378H95.783V48.104ZM116.1 55.576C111.61 55.576 108.93 54.461 107.909 52.168C107.742 51.7251 107.628 51.2638 107.571 50.794L107.527 50.506H112.869L112.904 50.716C112.945 50.9293 113.036 51.1299 113.168 51.302C113.379 51.557 114.083 51.985 116.419 51.985C119.227 51.985 119.227 51.492 119.227 51.227C119.227 50.78 118.902 50.627 116.612 50.383L116.177 50.342C115.315 50.261 114.225 50.158 113.727 50.115C109.527 49.735 107.652 48.43 107.652 45.885C107.652 43.212 110.843 41.485 115.782 41.485C119.811 41.485 122.407 42.547 123.496 44.644C123.754 45.1318 123.928 45.66 124.009 46.206L124.044 46.487H118.696L118.674 46.261C118.653 46.0844 118.578 45.9187 118.458 45.787C118.258 45.519 117.626 45.076 115.664 45.076C113.255 45.076 112.923 45.384 112.923 45.716C112.923 46.159 113.684 46.316 116.123 46.577C117.14 46.66 118.775 46.828 119.335 46.896C122.856 47.278 124.427 48.551 124.427 51.025C124.428 53.1 122.983 55.576 116.1 55.576ZM108.111 51.006C108.161 51.3358 108.247 51.6591 108.368 51.97C109.298 54.059 111.828 55.076 116.1 55.076C119.672 55.076 123.931 54.376 123.931 51.025C123.931 48.832 122.541 47.746 119.282 47.393C118.722 47.325 117.097 47.158 116.082 47.074C113.482 46.792 112.425 46.642 112.425 45.716C112.425 44.758 113.564 44.576 115.666 44.576C117.327 44.576 118.4 44.876 118.855 45.481C118.979 45.6301 119.073 45.802 119.131 45.987H123.465C123.378 45.6003 123.24 45.2267 123.055 44.876C122.055 42.957 119.612 41.985 115.784 41.985C111.149 41.985 108.154 43.516 108.154 45.885C108.154 48.145 109.835 49.261 113.773 49.617C114.273 49.66 115.362 49.763 116.226 49.845L116.664 49.886C118.791 50.11 119.729 50.25 119.729 51.227C119.729 52.279 118.516 52.485 116.421 52.485C114.483 52.485 113.259 52.194 112.786 51.621C112.64 51.4383 112.53 51.2296 112.462 51.006H108.111ZM133.927 55.559C128.707 55.559 125.827 53.448 125.827 49.614V41.686H130.879V49.614C130.879 50.929 132.056 51.683 134.107 51.683C136.067 51.683 137.284 50.896 137.284 49.631V41.686H142.284V50.034C142.289 53.545 139.24 55.559 133.924 55.559H133.927ZM126.327 42.186V49.614C126.327 54.352 131.085 55.059 133.927 55.059C136.865 55.059 141.792 54.406 141.792 50.034V42.186H137.792V49.631C137.792 51.181 136.348 52.183 134.115 52.183C131.781 52.183 130.387 51.223 130.387 49.614V42.186H126.327ZM163.472 55.374H158.704V49.194L156 55.374H151.841L149.165 49.206V55.374H144.38V41.686H150.674L153.944 49.233L157.372 41.686H163.478L163.472 55.374ZM159.204 54.874H162.972V42.186H157.69L153.928 50.465L150.342 42.186H144.876V54.874H148.661V46.8L152.161 54.877H155.661L159.198 46.812L159.204 54.874ZM19.054 41.936H14.5V55.124H27.084V51.613H19.054V41.936ZM36.276 41.636C30.463 41.636 27.406 44.391 27.406 48.436C27.406 53.006 30.615 55.324 36.276 55.324C42.508 55.324 45.129 52.636 45.129 48.436C45.129 44.171 42.172 41.634 36.276 41.634V41.636ZM36.259 45.063C36.6547 45.0612 37.0502 45.0842 37.443 45.132L32.352 50.223C32.1111 49.6781 31.9936 49.0866 32.008 48.491C32.008 46.422 33.05 45.061 36.259 45.061V45.063ZM36.276 51.951C35.8947 51.9527 35.5137 51.9313 35.135 51.887L40.235 46.787C40.4669 47.3229 40.5779 47.9033 40.56 48.487C40.56 50.5 39.6 51.949 36.276 51.949V51.951ZM54.152 50.151H58.839C58.77 50.4763 58.6262 50.781 58.419 51.041C57.4473 51.8326 56.2072 52.2178 54.958 52.116C54.3292 52.1833 53.6934 52.1146 53.0935 51.9146C52.4935 51.7147 51.9436 51.3881 51.481 50.957C51.0071 50.2619 50.782 49.4271 50.842 48.588C50.7653 47.7088 51.0101 46.8315 51.531 46.119C52.186 45.379 53.295 45.06 54.925 45.06C55.9621 44.9741 56.9979 45.2405 57.865 45.816C58.1383 46.0331 58.3426 46.3249 58.453 46.656H62.8C62.7684 46.1105 62.6372 45.5753 62.413 45.077C61.372 42.96 58.952 41.7 54.837 41.7C51.258 41.7 48.856 42.792 47.529 44.439C46.6526 45.6284 46.2027 47.0784 46.252 48.555C46.1953 50.065 46.6335 51.5521 47.5 52.79C48.811 54.49 51.146 55.326 53.952 55.326C55.8175 55.4561 57.6703 54.9336 59.193 53.848L59.311 55.124H62.922V47.312H54.152V50.151ZM73.171 41.633C67.359 41.633 64.301 44.388 64.301 48.433C64.301 53.003 67.509 55.321 73.171 55.321C79.404 55.321 82.025 52.633 82.025 48.433C82.025 44.171 79.068 41.634 73.171 41.634V41.633ZM73.155 45.06C73.5403 45.0589 73.9253 45.0809 74.308 45.126L69.237 50.2C69.0036 49.6612 68.89 49.0781 68.904 48.491C68.9 46.422 69.946 45.061 73.155 45.061V45.06ZM73.171 51.948C72.7796 51.9497 72.3885 51.927 72 51.88L77.117 46.762C77.3577 47.305 77.4729 47.8953 77.454 48.489C77.456 50.5 76.5 51.949 73.171 51.949V51.948Z" fill="#080829"/>
</svg>
