<svg width="178" height="100" viewBox="0 0 178 100" fill="none" xmlns="http://www.w3.org/2000/svg">
<path d="M67.8329 57.39C67.2414 57.4222 66.6564 57.2531 66.1722 56.91C65.9699 56.7592 65.8071 56.5611 65.698 56.3329C65.5888 56.1046 65.5365 55.8531 65.5457 55.5999V46.33C65.5409 46.2908 65.545 46.2509 65.5578 46.2135C65.5706 46.1761 65.5917 46.1421 65.6194 46.1142C65.6473 46.0862 65.6811 46.065 65.7183 46.0521C65.7555 46.0393 65.795 46.0351 65.8341 46.04H67.5047C67.6937 46.04 67.7832 46.14 67.7832 46.33V54.88C67.7832 55.26 67.9522 55.45 68.3003 55.45C68.4477 55.4561 68.5953 55.4393 68.7378 55.4C68.9367 55.4 69.0461 55.46 69.056 55.64L69.2052 56.89C69.2123 56.9264 69.2116 56.964 69.2031 57.0001C69.1946 57.0363 69.1785 57.0702 69.156 57.0996C69.1333 57.129 69.1047 57.1531 69.072 57.1705C69.0393 57.1878 69.0033 57.1978 68.9664 57.2C68.6006 57.3215 68.2182 57.3856 67.8329 57.39Z" fill="#080829"/>
<path d="M77.23 56.32C76.3906 57.0175 75.3358 57.399 74.2468 57.399C73.1579 57.399 72.103 57.0175 71.2635 56.32C70.5258 55.571 70.1118 54.5593 70.1118 53.505C70.1118 52.4507 70.5258 51.439 71.2635 50.69C72.1047 49.9961 73.1589 49.6169 74.2468 49.6169C75.3348 49.6169 76.389 49.9961 77.23 50.69C77.9509 51.4459 78.3533 52.4527 78.3533 53.5C78.3533 54.5473 77.9509 55.5541 77.23 56.31V56.32ZM72.8347 55C73.2243 55.3549 73.7312 55.5514 74.2567 55.5514C74.7824 55.5514 75.2892 55.3549 75.6787 55C76.0314 54.5924 76.2256 54.0703 76.2256 53.53C76.2256 52.9897 76.0314 52.4677 75.6787 52.06C75.2892 51.7052 74.7824 51.5086 74.2567 51.5086C73.7312 51.5086 73.2243 51.7052 72.8347 52.06C72.4822 52.4677 72.288 52.9897 72.288 53.53C72.288 54.0703 72.4822 54.5924 72.8347 55Z" fill="#080829"/>
<path d="M87.5521 49.8701C87.741 49.8701 87.8305 49.9701 87.8305 50.1601V57.3301C87.8478 57.814 87.7578 58.2958 87.5669 58.7403C87.376 59.1849 87.0889 59.5811 86.7267 59.9001C85.9227 60.5896 84.8886 60.9469 83.833 60.9001C82.8795 60.9338 81.9387 60.672 81.1381 60.1501C80.7963 59.9244 80.5042 59.6303 80.2801 59.2862C80.056 58.9422 79.9047 58.5555 79.8355 58.1501C79.8355 57.9501 79.8355 57.8601 80.1039 57.8601H81.7746C81.8455 57.8625 81.9142 57.8855 81.9724 57.9263C82.0306 57.9672 82.0759 58.024 82.1027 58.0901C82.211 58.3938 82.427 58.6466 82.7093 58.8001C83.0533 58.9786 83.436 59.0679 83.8231 59.0601C84.0565 59.073 84.2902 59.0389 84.5105 58.9599C84.7307 58.881 84.9331 58.7586 85.1058 58.6001C85.2636 58.4343 85.3864 58.238 85.4667 58.0232C85.547 57.8084 85.5833 57.5794 85.5732 57.3501V56.7201C84.9751 57.1625 84.2471 57.3913 83.5048 57.3701C82.9854 57.3891 82.4674 57.3023 81.9821 57.115C81.4968 56.9277 81.0541 56.6437 80.6807 56.2801C79.9637 55.5342 79.563 54.5375 79.563 53.5001C79.563 52.4628 79.9637 51.466 80.6807 50.7201C81.0559 50.3597 81.4991 50.0784 81.9842 49.893C82.4692 49.7075 82.9863 49.6215 83.5048 49.6401C84.2685 49.6198 85.016 49.8633 85.6229 50.3301V50.1701C85.6184 50.1318 85.6223 50.0929 85.6346 50.0563C85.6468 50.0197 85.667 49.9864 85.6936 49.9586C85.7203 49.9308 85.7527 49.9094 85.7887 49.8958C85.8246 49.8822 85.8631 49.8769 85.9014 49.8801L87.5521 49.8701ZM83.6938 55.5901C83.9499 55.5981 84.2047 55.5494 84.4402 55.4474C84.6756 55.3455 84.8858 55.1928 85.0561 55.0001C85.3867 54.5708 85.5661 54.0431 85.5661 53.5001C85.5661 52.9571 85.3867 52.4295 85.0561 52.0001C84.8864 51.81 84.6775 51.6596 84.4438 51.5594C84.2102 51.4592 83.9575 51.4117 83.7037 51.4201C83.4446 51.4119 83.1867 51.4604 82.9481 51.5623C82.7094 51.6642 82.4956 51.817 82.3215 52.0101C81.9552 52.4208 81.7626 52.9589 81.7845 53.5101C81.7665 54.0559 81.9549 54.5883 82.3115 55.0001C82.4861 55.1927 82.7 55.3452 82.9385 55.447C83.1771 55.5488 83.4347 55.5976 83.6938 55.5901Z" fill="#080829"/>
<path d="M96.4124 56.32C95.5713 57.0139 94.517 57.3931 93.4291 57.3931C92.3413 57.3931 91.287 57.0139 90.4459 56.32C89.7245 55.5624 89.3217 54.5539 89.3217 53.505C89.3217 52.456 89.7245 51.4475 90.4459 50.6899C91.2878 49.9978 92.3418 49.6198 93.4291 49.6198C94.5165 49.6198 95.5705 49.9978 96.4124 50.6899C97.1331 51.4458 97.5356 52.4527 97.5356 53.5C97.5356 54.5473 97.1331 55.5541 96.4124 56.31V56.32ZM92.0071 55C92.1978 55.1824 92.4225 55.3249 92.6683 55.4193C92.914 55.5137 93.1761 55.558 93.4391 55.5499C93.7004 55.5567 93.9606 55.5117 94.2045 55.4174C94.4485 55.323 94.6717 55.1812 94.8611 55C95.2078 54.5896 95.3983 54.0685 95.3983 53.5299C95.3983 52.9913 95.2078 52.4704 94.8611 52.06C94.6717 51.8788 94.4485 51.737 94.2045 51.6426C93.9606 51.5483 93.7004 51.5031 93.4391 51.5099C93.1761 51.5017 92.914 51.5463 92.6683 51.6407C92.4225 51.7351 92.1978 51.8776 92.0071 52.06C91.6603 52.4704 91.4699 52.9913 91.4699 53.5299C91.4699 54.0685 91.6603 54.5896 92.0071 55Z" fill="#080829"/>
<path d="M101.126 48.17C100.863 48.4014 100.525 48.5289 100.176 48.5289C99.8272 48.5289 99.4891 48.4014 99.2264 48.17C99.1073 48.0569 99.0123 47.9205 98.9474 47.7692C98.8826 47.6179 98.8491 47.4548 98.8491 47.29C98.8491 47.1252 98.8826 46.9622 98.9474 46.8108C99.0123 46.6595 99.1073 46.5231 99.2264 46.41C99.492 46.1844 99.8282 46.0607 100.176 46.0607C100.524 46.0607 100.86 46.1844 101.126 46.41C101.245 46.5231 101.34 46.6595 101.405 46.8108C101.47 46.9622 101.503 47.1252 101.503 47.29C101.503 47.4548 101.47 47.6179 101.405 47.7692C101.34 47.9205 101.245 48.0569 101.126 48.17ZM101.335 57.39C100.744 57.4192 100.159 57.2503 99.674 56.91C99.4751 56.757 99.3147 56.5582 99.2075 56.3303C99.1002 56.1024 99.0488 55.852 99.0574 55.6V50.16C99.0526 50.1208 99.0567 50.0809 99.0695 50.0435C99.0822 50.0061 99.1034 49.9722 99.1312 49.9442C99.159 49.9162 99.1928 49.895 99.23 49.8822C99.2672 49.8693 99.3068 49.8652 99.3458 49.87H101.016C101.205 49.87 101.295 49.97 101.295 50.16V54.88C101.295 55.26 101.464 55.45 101.802 55.45C101.953 55.4555 102.103 55.4386 102.25 55.4C102.448 55.4 102.558 55.46 102.568 55.64L102.717 56.89C102.724 56.9265 102.723 56.964 102.715 57.0002C102.706 57.0363 102.69 57.0702 102.667 57.0996C102.645 57.129 102.616 57.1532 102.584 57.1705C102.551 57.1878 102.515 57.1979 102.478 57.2C102.109 57.3223 101.724 57.3864 101.335 57.39Z" fill="#080829"/>
<path d="M108.862 49.63C109.385 49.6093 109.905 49.6942 110.394 49.8797C110.882 50.0652 111.329 50.3476 111.706 50.71C112.41 51.4689 112.8 52.4677 112.8 53.505C112.8 54.5423 112.41 55.5411 111.706 56.3C111.331 56.6656 110.884 56.9508 110.396 57.1381C109.907 57.3255 109.385 57.4112 108.862 57.39C108.118 57.4067 107.388 57.1784 106.784 56.74V60.35C106.784 60.54 106.685 60.63 106.496 60.63H104.825C104.787 60.6372 104.748 60.6349 104.711 60.6234C104.674 60.6118 104.64 60.5914 104.612 60.5638C104.585 60.5362 104.565 60.5023 104.554 60.4651C104.542 60.4278 104.54 60.3883 104.547 60.35V52.15C104.559 52.0698 104.552 51.988 104.526 51.911C104.501 51.8341 104.458 51.7641 104.401 51.7068C104.344 51.6495 104.274 51.6064 104.198 51.5809C104.121 51.5554 104.04 51.5482 103.96 51.56H103.632C103.413 51.56 103.304 51.48 103.304 51.32V50.14C103.299 50.067 103.319 49.9944 103.36 49.9344C103.402 49.8743 103.463 49.8304 103.532 49.81C103.876 49.6843 104.24 49.6233 104.606 49.63C104.971 49.5975 105.337 49.6753 105.658 49.8535C105.979 50.0317 106.239 50.302 106.406 50.63C106.726 50.3042 107.109 50.0474 107.532 49.8755C107.955 49.7036 108.407 49.62 108.862 49.63ZM107.311 55C107.488 55.1864 107.701 55.3347 107.938 55.436C108.173 55.5373 108.427 55.5895 108.683 55.5895C108.94 55.5895 109.194 55.5373 109.429 55.436C109.665 55.3347 109.879 55.1864 110.056 55C110.43 54.5811 110.626 54.0322 110.603 53.47C110.629 52.9073 110.432 52.3572 110.056 51.94C109.879 51.7537 109.665 51.6054 109.429 51.504C109.194 51.4027 108.94 51.3505 108.683 51.3505C108.427 51.3505 108.173 51.4027 107.938 51.504C107.701 51.6054 107.488 51.7537 107.311 51.94C106.949 52.3646 106.761 52.9113 106.784 53.47C106.764 54.0283 106.952 54.5739 107.311 55Z" fill="#080829"/>
<path d="M117.494 57.39C116.601 57.4269 115.716 57.2122 114.938 56.77C114.626 56.581 114.361 56.3237 114.161 56.0173C113.961 55.7109 113.833 55.3632 113.785 55C113.785 54.8 113.854 54.7 114.073 54.7H115.535C115.605 54.7027 115.672 54.7247 115.73 54.7635C115.788 54.8024 115.834 54.8565 115.863 54.92C116.072 55.46 116.619 55.73 117.494 55.73C117.799 55.744 118.104 55.6822 118.379 55.55C118.474 55.5068 118.556 55.4384 118.616 55.3521C118.675 55.2658 118.71 55.1648 118.717 55.06C118.717 54.8 118.558 54.62 118.24 54.5C117.862 54.3737 117.472 54.2898 117.076 54.25C116.607 54.1966 116.143 54.1131 115.684 54C115.239 53.8986 114.833 53.6652 114.521 53.33C114.337 53.1022 114.201 52.8387 114.123 52.556C114.044 52.2733 114.024 51.9773 114.064 51.6866C114.104 51.3958 114.203 51.1164 114.356 50.8659C114.508 50.6153 114.71 50.3989 114.948 50.23C115.665 49.7709 116.506 49.5472 117.355 49.59C118.176 49.5621 118.99 49.7665 119.702 50.18C119.988 50.3435 120.236 50.5692 120.424 50.8408C120.614 51.1124 120.741 51.423 120.795 51.75C120.795 51.95 120.706 52.05 120.527 52.05H119.055C118.994 52.0537 118.932 52.0385 118.878 52.0064C118.825 51.9743 118.783 51.9267 118.757 51.87C118.658 51.6332 118.473 51.4434 118.24 51.34C117.976 51.2014 117.682 51.1325 117.385 51.14C117.093 51.1241 116.802 51.1825 116.539 51.31C116.447 51.346 116.366 51.409 116.31 51.491C116.253 51.573 116.222 51.6701 116.221 51.77C116.227 51.9068 116.277 52.0379 116.363 52.1441C116.449 52.2502 116.566 52.3259 116.698 52.36C117.08 52.5047 117.477 52.6054 117.882 52.66C118.347 52.7216 118.809 52.8083 119.264 52.92C119.709 53.0215 120.115 53.2548 120.427 53.59C120.595 53.7747 120.724 53.9908 120.807 54.226C120.891 54.4611 120.928 54.7106 120.915 54.96C120.924 55.3057 120.842 55.6477 120.68 55.9527C120.518 56.2576 120.28 56.5151 119.99 56.7C119.247 57.1796 118.376 57.4203 117.494 57.39Z" fill="#080829"/>
<path d="M131.426 56.89C131.432 56.9255 131.43 56.9618 131.422 56.9967C131.413 57.0316 131.398 57.0645 131.376 57.0934C131.355 57.1223 131.328 57.1466 131.297 57.1649C131.267 57.1832 131.233 57.1951 131.197 57.2C130.834 57.3192 130.455 57.3832 130.073 57.39C129.695 57.4294 129.314 57.37 128.965 57.2175C128.616 57.0651 128.313 56.8249 128.084 56.52C127.382 57.1273 126.473 57.4389 125.549 57.39C125.119 57.4099 124.69 57.3392 124.29 57.1825C123.889 57.0258 123.525 56.7865 123.222 56.48C122.92 56.1589 122.687 55.7799 122.535 55.3658C122.382 54.9517 122.315 54.5109 122.337 54.07V50.16C122.337 49.97 122.426 49.87 122.615 49.87H124.286C124.475 49.87 124.564 49.97 124.564 50.16V53.77C124.546 54.2198 124.698 54.6596 124.992 55C125.138 55.1559 125.316 55.2786 125.513 55.3597C125.71 55.4407 125.923 55.4784 126.135 55.47C126.353 55.4796 126.571 55.4456 126.776 55.3701C126.981 55.2946 127.169 55.179 127.329 55.03C127.48 54.873 127.598 54.6863 127.675 54.4817C127.752 54.277 127.786 54.0586 127.776 53.84V50.16C127.776 49.97 127.866 49.87 128.055 49.87H129.745C129.934 49.87 130.024 49.97 130.024 50.16V54.87C130.024 55.26 130.193 55.45 130.521 55.45C130.675 55.456 130.829 55.4392 130.978 55.4C131.016 55.3894 131.055 55.3875 131.094 55.3944C131.132 55.4014 131.168 55.417 131.2 55.4401C131.232 55.4632 131.258 55.4932 131.276 55.5278C131.294 55.5624 131.304 55.6008 131.306 55.64L131.426 56.89Z" fill="#080829"/>
<path d="M147.227 56.89C147.236 56.9258 147.237 56.9632 147.23 56.9993C147.222 57.0355 147.207 57.0697 147.185 57.0993C147.163 57.1289 147.135 57.1533 147.103 57.1707C147.071 57.1881 147.035 57.1981 146.998 57.2C146.628 57.3209 146.243 57.3849 145.855 57.39C145.263 57.4207 144.679 57.2517 144.194 56.91C143.984 56.7636 143.814 56.5675 143.698 56.339C143.581 56.1104 143.523 55.8566 143.528 55.6V53.25C143.549 52.8016 143.399 52.3619 143.11 52.02C142.971 51.8637 142.798 51.7405 142.606 51.6592C142.413 51.5779 142.205 51.5406 141.996 51.55C141.808 51.5429 141.621 51.5787 141.448 51.655C141.276 51.7312 141.124 51.8457 141.002 51.99C140.739 52.3251 140.605 52.7438 140.624 53.17V56.86C140.624 57.05 140.534 57.15 140.346 57.15H138.665C138.626 57.1549 138.586 57.1507 138.55 57.1379C138.512 57.125 138.478 57.1038 138.45 57.0758C138.422 57.0479 138.401 57.0139 138.389 56.9765C138.376 56.9391 138.372 56.8993 138.377 56.86V53.25C138.398 52.8065 138.26 52.3699 137.989 52.02C137.867 51.873 137.715 51.7547 137.543 51.6735C137.372 51.5922 137.184 51.5501 136.994 51.55C136.792 51.5418 136.59 51.5767 136.401 51.6525C136.212 51.7284 136.042 51.8434 135.901 51.99C135.616 52.3144 135.47 52.7381 135.493 53.17V56.86C135.498 56.8993 135.494 56.9391 135.481 56.9765C135.468 57.0139 135.447 57.0479 135.419 57.0758C135.391 57.1038 135.358 57.125 135.321 57.1379C135.283 57.1507 135.243 57.1549 135.204 57.15H133.584C133.395 57.15 133.305 57.05 133.305 56.86V52.15C133.317 52.0698 133.31 51.988 133.284 51.911C133.259 51.834 133.217 51.7641 133.159 51.7068C133.102 51.6495 133.033 51.6064 132.956 51.5809C132.879 51.5554 132.798 51.5482 132.718 51.56H132.39C132.171 51.56 132.062 51.48 132.062 51.32V50.14C132.057 50.067 132.077 49.9944 132.119 49.9343C132.161 49.8743 132.221 49.8304 132.291 49.81C132.635 49.6843 132.999 49.6232 133.365 49.63C133.716 49.5999 134.069 49.6703 134.382 49.8331C134.695 49.9959 134.956 50.2444 135.135 50.55C135.47 50.2302 135.868 49.9835 136.302 49.8252C136.737 49.6669 137.199 49.6005 137.661 49.63C138.109 49.608 138.556 49.6925 138.965 49.8767C139.375 50.0609 139.735 50.3395 140.017 50.69C140.347 50.3303 140.751 50.0486 141.202 49.8653C141.652 49.682 142.137 49.6016 142.623 49.63C143.057 49.6096 143.491 49.6799 143.896 49.8365C144.301 49.9932 144.67 50.2327 144.98 50.54C145.282 50.8605 145.516 51.2394 145.668 51.6536C145.82 52.0679 145.887 52.509 145.865 52.95V54.88C145.865 55.26 146.034 55.45 146.352 55.45C146.506 55.4572 146.66 55.4404 146.809 55.4C147.015 55.4 147.124 55.48 147.137 55.64L147.227 56.89Z" fill="#080829"/>
<path d="M30.6219 48.57C31.3556 45.6047 33.0548 42.9714 35.4487 41.0895C37.8428 39.2076 40.7941 38.1853 43.8327 38.1853C46.8715 38.1853 49.8227 39.2076 52.2167 41.0895C54.6108 42.9714 56.3099 45.6047 57.0435 48.57H55.8502C53.8372 48.5402 51.8655 49.1452 50.2119 50.3C50.1165 50.3695 50.0169 50.4329 49.9136 50.49H49.7743C49.6711 50.4329 49.5715 50.3695 49.476 50.3C47.8078 49.1719 45.8431 48.5694 43.8327 48.5694C41.8224 48.5694 39.8577 49.1719 38.1894 50.3C38.0941 50.3695 37.9944 50.4329 37.8911 50.49H37.7519C37.6487 50.4329 37.549 50.3695 37.4536 50.3C35.8001 49.1452 33.8282 48.5402 31.8152 48.57H30.6219ZM53.7023 54.84C54.3148 54.3603 55.0741 54.1093 55.8502 54.13H57.4512V50.92H55.8502C54.4832 50.9034 53.1473 51.3313 52.0416 52.14C51.4194 52.6013 50.6667 52.8501 49.8937 52.8501C49.1207 52.8501 48.3679 52.6013 47.7457 52.14C46.612 51.3464 45.2638 50.9209 43.8824 50.9209C42.5011 50.9209 41.1529 51.3464 40.0191 52.14C39.3969 52.6013 38.6443 52.8501 37.8712 52.8501C37.0983 52.8501 36.3455 52.6013 35.7233 52.14C34.604 51.3209 33.249 50.8925 31.865 50.92H30.2142V54.13H31.8152C32.5914 54.1093 33.3506 54.3603 33.9632 54.84C35.0948 55.6341 36.4415 56.06 37.8215 56.06C39.2014 56.06 40.5482 55.6341 41.6798 54.84C42.2932 54.3617 43.0519 54.111 43.8278 54.13C44.6042 54.1076 45.3639 54.3588 45.9757 54.84C47.1094 55.6336 48.4576 56.0591 49.839 56.0591C51.2203 56.0591 52.5685 55.6336 53.7023 54.84ZM53.7023 60.58C54.3148 60.1003 55.0741 59.8493 55.8502 59.87H57.4512V56.66H55.8502C54.4832 56.6434 53.1473 57.0713 52.0416 57.88C51.4194 58.3413 50.6667 58.5901 49.8937 58.5901C49.1207 58.5901 48.3679 58.3413 47.7457 57.88C46.612 57.0864 45.2638 56.6609 43.8824 56.6609C42.5011 56.6609 41.1529 57.0864 40.0191 57.88C39.3969 58.3413 38.6443 58.5901 37.8712 58.5901C37.0983 58.5901 36.3455 58.3413 35.7233 57.88C34.604 57.0609 33.249 56.6325 31.865 56.66H30.2142V59.87H31.8152C32.5914 59.8493 33.3506 60.1003 33.9632 60.58C35.0948 61.3741 36.4415 61.8 37.8215 61.8C39.2014 61.8 40.5482 61.3741 41.6798 60.58C42.2932 60.1017 43.0519 59.851 43.8278 59.87C44.6042 59.8476 45.3639 60.0988 45.9757 60.58C47.1094 61.3736 48.4576 61.7991 49.839 61.7991C51.2203 61.7991 52.5685 61.3736 53.7023 60.58Z" fill="#080829"/>
</svg>
