<svg width="178" height="100" viewBox="0 0 178 100" fill="none" xmlns="http://www.w3.org/2000/svg">
<path d="M10.9216 30.047V65.5H168.614V30.047H10.9216ZM166.625 63.5H86.0774V32.047H166.625V63.5Z" fill="#080829"/>
<path d="M19.3036 53.713V41.926H23.3489V50.574H30.4848V53.713H19.3036Z" fill="white"/>
<path d="M46.4332 47.737C46.4332 51.49 44.1042 53.893 38.5644 53.893C33.5326 53.893 30.6807 51.821 30.6807 47.737C30.6807 44.118 33.3994 41.656 38.5644 41.656C43.8099 41.656 46.4332 43.923 46.4332 47.737ZM42.372 47.782C42.372 46.082 41.6699 44.719 38.5495 44.719C35.6975 44.719 34.7707 45.935 34.7707 47.782C34.7707 49.659 35.6209 50.875 38.5624 50.875C41.5228 50.875 42.372 49.584 42.372 47.782Z" fill="white"/>
<path d="M58.9467 53.7129L58.8423 52.5709C57.4891 53.5421 55.842 54.0095 54.1835 53.8929C51.6905 53.8929 49.6142 53.1419 48.4497 51.6259C47.6817 50.5191 47.2939 49.1905 47.3449 47.8419C47.3014 46.5216 47.7026 45.2251 48.4835 44.1629C49.6619 42.6919 51.7979 41.7159 54.978 41.7159C58.6365 41.7159 60.7864 42.8419 61.7112 44.7339C61.9098 45.1795 62.0263 45.6575 62.0553 46.1449H58.185C58.0876 45.8487 57.9061 45.5877 57.6629 45.3939C56.8921 44.8799 55.9714 44.6421 55.0496 44.7189C54.509 44.653 53.9605 44.7032 53.4407 44.8663C52.9207 45.0294 52.4412 45.3016 52.0336 45.6649C51.5709 46.3019 51.3536 47.0861 51.422 47.8719C51.3684 48.6216 51.5682 49.3676 51.9888 49.9889C52.4001 50.3742 52.889 50.666 53.4222 50.8448C53.9554 51.0235 54.5206 51.085 55.0795 51.0249C56.1896 51.1157 57.2917 50.7714 58.1552 50.0639C58.3407 49.8307 58.4685 49.5565 58.5281 49.2639H54.3635V46.7309H62.1567V53.7129H58.9467Z" fill="white"/>
<path d="M79.0439 47.737C79.0439 51.49 76.714 53.893 71.1752 53.893C66.1434 53.893 63.2914 51.821 63.2914 47.737C63.2914 44.118 66.0102 41.656 71.1752 41.656C76.4167 41.656 79.0439 43.923 79.0439 47.737ZM74.9828 47.782C74.9828 46.082 74.2807 44.719 71.1602 44.719C68.3083 44.719 67.3815 45.935 67.3815 47.782C67.3815 49.659 68.2327 50.875 71.1732 50.875C74.1325 50.875 74.9828 49.584 74.9828 47.782Z" fill="white"/>
<path d="M92.8911 53.668V41.881H95.7749V53.668H92.8911Z" fill="#080829"/>
<path d="M110.584 48.743C109.853 49.704 108.595 50.143 106.822 50.154C106.448 50.154 101.491 50.139 101.491 50.139V53.668H98.6687V41.881H106.823C107.476 41.8115 108.138 41.8812 108.762 42.0855C109.387 42.2899 109.962 42.6243 110.451 43.067C111.095 43.9112 111.408 44.9638 111.332 46.025C111.397 46.9902 111.134 47.9491 110.584 48.743ZM108.27 44.9C107.971 44.45 107.328 44.2 106.239 44.2H101.476V47.788H106.208C107.373 47.788 107.986 47.548 108.27 47.082C108.439 46.7537 108.51 46.384 108.479 46.016C108.503 45.6322 108.432 45.2483 108.27 44.9Z" fill="#080829"/>
<path d="M119.648 53.848C114.332 53.848 112.705 51.848 112.705 49.869H115.721C115.721 50.845 117.049 51.5811 119.782 51.5811C122.499 51.5811 123.216 51.1 123.216 50.319C123.216 49.4481 122.679 49.1781 120.155 48.8931C119.658 48.8481 118.304 48.6831 117.796 48.6081C114.216 48.2021 112.838 47.136 112.838 45.229C112.838 43.217 114.855 41.701 119.229 41.701C123.978 41.701 125.799 43.578 125.799 45.53H122.816C122.816 44.539 121.696 43.968 119.053 43.968C116.335 43.968 115.754 44.343 115.754 45.079C115.754 45.845 116.35 46.0851 119.234 46.43C119.891 46.521 121.354 46.686 121.757 46.73C124.804 47.045 126.177 48.1561 126.177 50.1231C126.172 52.4661 124.082 53.848 119.648 53.848Z" fill="#080829"/>
<path d="M134.669 53.833C130.773 53.833 128.235 52.286 128.235 49.033V41.881H131.086V49.073C131.086 50.56 132.296 51.55 134.789 51.55C137.043 51.55 138.388 50.62 138.388 49.073V41.881H141.21V49.3C141.21 52.257 138.85 53.833 134.669 53.833Z" fill="#080829"/>
<path d="M156.663 53.668V45.8L153.004 53.668H150.228L146.674 45.8V53.668H143.989V41.881H147.627L151.658 50.86L155.779 41.881H159.359V53.668H156.663Z" fill="#080829"/>
</svg>
