<svg width="80" height="80" viewBox="0 0 80 80" fill="none" xmlns="http://www.w3.org/2000/svg">
<path d="M0 20C0 8.95431 8.95431 0 20 0H60C71.0457 0 80 8.95431 80 20V60C80 71.0457 71.0457 80 60 80H20C8.95431 80 0 71.0457 0 60V20Z" fill="#67E4FF" fill-opacity="0.4"/>
<path fill-rule="evenodd" clip-rule="evenodd" d="M47.6235 33.0936C47.6235 37.4014 44.1893 40.8555 39.9065 40.8555C35.6236 40.8555 32.1894 37.4014 32.1894 33.0936C32.1894 28.7842 35.6236 25.3334 39.9065 25.3334C44.1893 25.3334 47.6235 28.7842 47.6235 33.0936ZM39.9065 54.6667C33.616 54.6667 28.2447 53.6694 28.2447 49.6803C28.2447 45.6896 33.5815 44.656 39.9065 44.656C46.197 44.656 51.5682 45.6533 51.5682 49.644C51.5682 53.6331 46.2314 54.6667 39.9065 54.6667ZM50.9213 33.2336C50.9213 35.4296 50.2663 37.4753 49.1172 39.176C48.999 39.351 49.104 39.5871 49.3125 39.6234C49.5998 39.673 49.8969 39.701 50.199 39.7093C53.2112 39.7885 55.9149 37.8386 56.6618 34.9029C57.7682 30.5423 54.5196 26.6275 50.3828 26.6275C49.933 26.6275 49.5029 26.6754 49.0843 26.7613C49.0269 26.7745 48.9661 26.8009 48.9333 26.8521C48.8939 26.9148 48.9235 26.999 48.9629 27.0535C50.2055 28.8053 50.9213 30.9419 50.9213 33.2336ZM55.91 42.7731C57.934 43.171 59.2654 43.9833 59.8169 45.1639C60.2831 46.1331 60.2831 47.2575 59.8169 48.2251C58.9732 50.0561 56.2531 50.6439 55.1959 50.7958C54.9776 50.8289 54.8019 50.639 54.8249 50.4194C55.365 45.3455 51.069 42.9398 49.9577 42.3867C49.91 42.362 49.9002 42.324 49.9051 42.3009C49.9084 42.2844 49.9281 42.2579 49.9642 42.253C52.3691 42.2084 54.9546 42.5386 55.91 42.7731ZM29.8013 39.7091C30.1033 39.7009 30.3988 39.6744 30.6877 39.6233C30.8962 39.5869 31.0013 39.3508 30.8831 39.1758C29.734 37.4752 29.079 35.4294 29.079 33.2335C29.079 30.9417 29.7947 28.8052 31.0374 27.0533C31.0768 26.9989 31.1047 26.9146 31.0669 26.8519C31.0341 26.8024 30.9717 26.7743 30.9159 26.7611C30.4957 26.6752 30.0656 26.6274 29.6158 26.6274C25.479 26.6274 22.2304 30.5421 23.3384 34.9027C24.0853 37.8384 26.789 39.7884 29.8013 39.7091ZM30.0943 42.2999C30.0992 42.3246 30.0894 42.361 30.0434 42.3874C28.9304 42.9405 24.6344 45.3462 25.1745 50.4184C25.1975 50.6396 25.0235 50.8279 24.8052 50.7965C23.748 50.6446 21.0279 50.0568 20.1841 48.2257C19.7163 47.2565 19.7163 46.1338 20.1841 45.1646C20.7357 43.984 22.0654 43.1717 24.0894 42.7721C25.0465 42.5393 27.6303 42.2091 30.0369 42.2536C30.073 42.2586 30.091 42.285 30.0943 42.2999Z" fill="#080829"/>
</svg>
