<svg width="80" height="80" viewBox="0 0 80 80" fill="none" xmlns="http://www.w3.org/2000/svg">
<path d="M0 20C0 8.95431 8.95431 0 20 0H60C71.0457 0 80 8.95431 80 20V60C80 71.0457 71.0457 80 60 80H20C8.95431 80 0 71.0457 0 60V20Z" fill="#FFC123" fill-opacity="0.3"/>
<path fill-rule="evenodd" clip-rule="evenodd" d="M52.2963 34.1266C52.2963 36.4291 52.9048 37.7863 54.2441 39.3502C55.259 40.5024 55.5833 41.9814 55.5833 43.586C55.5833 45.1887 55.0567 46.7102 54.0017 47.9455C52.6206 49.4264 50.6728 50.3718 48.6849 50.5361C45.8042 50.7817 42.9217 50.9885 40.0009 50.9885C37.0783 50.9885 34.1975 50.8648 31.3168 50.5361C29.3271 50.3718 27.3793 49.4264 26 47.9455C24.945 46.7102 24.4166 45.1887 24.4166 43.586C24.4166 41.9814 24.7428 40.5024 25.7558 39.3502C27.137 37.7863 27.7055 36.4291 27.7055 34.1266V33.3455C27.7055 30.2619 28.4744 28.2456 30.0578 26.2717C32.4119 23.3931 36.1854 21.6666 39.9189 21.6666H40.0829C43.8965 21.6666 47.7921 23.4762 50.1061 26.4785C51.6075 28.4118 52.2963 30.3432 52.2963 33.3455V34.1266ZM34.635 54.7782C34.635 53.8549 35.4823 53.4321 36.2658 53.2511C37.1823 53.0573 42.767 53.0573 43.6835 53.2511C44.467 53.4321 45.3142 53.8549 45.3142 54.7782C45.2687 55.6571 44.753 56.4363 44.0406 56.9311C43.1168 57.6513 42.0327 58.1073 40.8993 58.2717C40.2725 58.3529 39.6567 58.3548 39.0518 58.2717C37.9166 58.1073 36.8325 57.6513 35.9105 56.9293C35.1962 56.4363 34.6806 55.6571 34.635 54.7782Z" fill="#080829"/>
</svg>
