<svg width="80" height="80" viewBox="0 0 80 80" fill="none" xmlns="http://www.w3.org/2000/svg">
<path d="M0 20C0 8.95431 8.95431 0 20 0H60C71.0457 0 80 8.95431 80 20V60C80 71.0457 71.0457 80 60 80H20C8.95431 80 0 71.0457 0 60V20Z" fill="#3F53D8" fill-opacity="0.3"/>
<path fill-rule="evenodd" clip-rule="evenodd" d="M31.439 21.6675H48.5605C54.7957 21.6675 58.3157 25.204 58.334 31.4392V48.5625C58.334 54.7959 54.7957 58.3342 48.5605 58.3342H31.439C25.2039 58.3342 21.6674 54.7959 21.6674 48.5625V31.4392C21.6674 25.204 25.2039 21.6675 31.439 21.6675ZM40.0905 50.7442C40.8807 50.7442 41.5389 50.1575 41.6122 49.3692V30.6875C41.6855 30.1192 41.4124 29.549 40.9174 29.2392C40.4022 28.9275 39.7789 28.9275 39.2857 29.2392C38.7889 29.549 38.5157 30.1192 38.5689 30.6875V49.3692C38.6624 50.1575 39.3205 50.7442 40.0905 50.7442ZM48.5257 50.7442C49.2957 50.7442 49.9539 50.1575 50.0474 49.3692V43.3559C50.1005 42.7674 49.8274 42.2192 49.3305 41.9075C48.8374 41.5959 48.214 41.5959 47.7007 41.9075C47.2039 42.2192 46.9307 42.7674 47.004 43.3559V49.3692C47.0774 50.1575 47.7355 50.7442 48.5257 50.7442ZM33.0689 49.3692C32.9955 50.1575 32.3374 50.7442 31.5472 50.7442C30.7589 50.7442 30.0989 50.1575 30.0274 49.3692V36.7009C29.9724 36.1307 30.2455 35.5642 30.7424 35.2525C31.2355 34.9409 31.8607 34.9409 32.3557 35.2525C32.8489 35.5642 33.1257 36.1307 33.0689 36.7009V49.3692Z" fill="#080829"/>
</svg>
