<svg width="80" height="80" viewBox="0 0 80 80" fill="none" xmlns="http://www.w3.org/2000/svg">
<path d="M0 20C0 8.95431 8.95431 0 20 0H60C71.0457 0 80 8.95431 80 20V60C80 71.0457 71.0457 80 60 80H20C8.95431 80 0 71.0457 0 60V20Z" fill="#2CAE76" fill-opacity="0.3"/>
<path d="M57.2983 22.7337C56.3812 21.7925 55.024 21.4419 53.7585 21.811L24.2481 30.3926C22.9129 30.7635 21.9665 31.8284 21.7115 33.1811C21.4511 34.5579 22.3608 36.3056 23.5493 37.0364L32.7766 42.7076C33.723 43.2889 34.9445 43.1431 35.7276 42.3533L46.2938 31.7213C46.8257 31.1677 47.706 31.1677 48.2379 31.7213C48.7698 32.2565 48.7698 33.1239 48.2379 33.6776L37.6534 44.3113C36.8684 45.0994 36.7217 46.3266 37.2994 47.2789L42.9374 56.5987C43.5977 57.706 44.7348 58.3335 45.982 58.3335C46.1287 58.3335 46.2938 58.3335 46.4405 58.315C47.8711 58.1304 49.0082 57.1523 49.4301 55.7682L58.1786 26.2955C58.5638 25.0406 58.2153 23.6749 57.2983 22.7337Z" fill="#080829"/>
</svg>
