<svg width="80" height="80" viewBox="0 0 80 80" fill="none" xmlns="http://www.w3.org/2000/svg">
<path d="M0 20C0 8.95431 8.95431 0 20 0H60C71.0457 0 80 8.95431 80 20V60C80 71.0457 71.0457 80 60 80H20C8.95431 80 0 71.0457 0 60V20Z" fill="#FE7F51" fill-opacity="0.3"/>
<path fill-rule="evenodd" clip-rule="evenodd" d="M49.4963 26.0851C49.4963 23.6467 51.4763 21.6667 53.9147 21.6667C56.353 21.6667 58.333 23.6467 58.333 26.0851C58.333 28.5235 56.353 30.5035 53.9147 30.5035C51.4763 30.5035 49.4963 28.5235 49.4963 26.0851ZM42.4378 45.0588L47.7361 38.2223L47.6628 38.259C47.9561 37.8557 48.0111 37.3423 47.8095 36.884C47.6096 36.4257 47.1678 36.114 46.693 36.0773C46.1961 36.0223 45.703 36.2423 45.4078 36.6457L40.973 42.384L35.8928 38.3873C35.5811 38.149 35.2145 38.0555 34.8478 38.094C34.483 38.149 34.153 38.3488 33.9311 38.6422L28.5063 45.7023L28.3945 45.8673C28.0828 46.4522 28.2295 47.2038 28.7795 47.609C29.0361 47.774 29.3111 47.884 29.6228 47.884C30.0463 47.9023 30.4478 47.6805 30.7045 47.334L35.3061 41.4105L40.5311 45.3357L40.6961 45.4438C41.2828 45.7555 42.0161 45.6107 42.4378 45.0588ZM46.3245 24.9306C46.2511 25.389 46.2145 25.8473 46.2145 26.3056C46.2145 30.4307 49.5511 33.7655 53.6578 33.7655C54.1161 33.7655 54.5561 33.7123 55.0145 33.639V48.4322C55.0145 54.649 51.3478 58.334 45.1145 58.334H31.568C25.3328 58.334 21.6661 54.649 21.6661 48.4322V34.8673C21.6661 28.634 25.3328 24.9306 31.568 24.9306H46.3245Z" fill="#080829"/>
</svg>
