<svg width="80" height="80" viewBox="0 0 80 80" fill="none" xmlns="http://www.w3.org/2000/svg">
<path d="M0 20C0 8.95431 8.95431 0 20 0H60C71.0457 0 80 8.95431 80 20V60C80 71.0457 71.0457 80 60 80H20C8.95431 80 0 71.0457 0 60V20Z" fill="#FA5B68" fill-opacity="0.3"/>
<path fill-rule="evenodd" clip-rule="evenodd" d="M50.5763 33.3666H58.3333C58.3333 27.1384 54.6014 23.5 48.2785 23.5H31.7214C25.3985 23.5 21.6666 27.1384 21.6666 33.2872V46.7128C21.6666 52.8616 25.3985 56.5 31.7214 56.5H48.2785C54.6014 56.5 58.3333 52.8616 58.3333 46.7128V46.1408H50.5763C46.9762 46.1408 44.0577 43.2955 44.0577 39.7855C44.0577 36.2756 46.9762 33.4302 50.5763 33.4302V33.3666ZM50.5763 36.0994H56.9644C57.7204 36.0994 58.3333 36.697 58.3333 37.434V42.0734C58.3245 42.8069 57.7167 43.3995 56.9644 43.408H50.7229C48.9004 43.4319 47.3067 42.2153 46.8933 40.4846C46.6863 39.4102 46.9769 38.3015 47.6873 37.4557C48.3976 36.6099 49.4551 36.1135 50.5763 36.0994ZM50.8533 40.9771H51.4563C52.2303 40.9771 52.8577 40.3654 52.8577 39.6107C52.8577 38.8561 52.2303 38.2443 51.4563 38.2443H50.8533C50.4831 38.2401 50.1266 38.3805 49.8633 38.6342C49.6 38.888 49.4518 39.2339 49.4518 39.5948C49.4518 40.3521 50.0766 40.9684 50.8533 40.9771ZM30.3526 33.3666H40.7007C41.4747 33.3666 42.1022 32.7549 42.1022 32.0002C42.1022 31.2456 41.4747 30.6338 40.7007 30.6338H30.3526C29.5849 30.6338 28.96 31.2359 28.9511 31.9844C28.951 32.7416 29.5759 33.3579 30.3526 33.3666Z" fill="#080829"/>
</svg>
