<svg width="80" height="80" viewBox="0 0 80 80" fill="none" xmlns="http://www.w3.org/2000/svg">
<path d="M0 20C0 8.95431 8.95431 0 20 0H60C71.0457 0 80 8.95431 80 20V60C80 71.0457 71.0457 80 60 80H20C8.95431 80 0 71.0457 0 60V20Z" fill="#545479" fill-opacity="0.3"/>
<path fill-rule="evenodd" clip-rule="evenodd" d="M42.6582 26.9471H48.2865C55.0515 26.9471 58.3515 30.5587 58.3332 37.9654V46.8937C58.3332 53.9704 53.9698 58.3337 46.8748 58.3337H33.1065C26.0482 58.3337 21.6665 53.9704 21.6665 46.8754V33.1071C21.6665 25.5171 25.0398 21.6671 31.6948 21.6671H34.5915C36.2983 21.6487 37.8915 22.4371 38.9365 23.7754L40.5498 25.9204C41.0632 26.5621 41.8332 26.9471 42.6582 26.9471ZM31.5115 46.0321H48.4882C49.2398 46.0321 49.8448 45.4087 49.8448 44.6571C49.8448 43.8871 49.2398 43.2821 48.4882 43.2821H31.5115C30.7415 43.2821 30.1365 43.8871 30.1365 44.6571C30.1365 45.4087 30.7415 46.0321 31.5115 46.0321Z" fill="#080829"/>
</svg>
