<svg width="199" height="26" viewBox="0 0 199 26" fill="none" xmlns="http://www.w3.org/2000/svg">
<g clip-path="url(#clip0_4232_2)">
<path d="M25.9757 9.80055C25.8595 9.42306 25.6359 9.09058 25.3342 8.84648C25.0325 8.60238 24.6667 8.458 24.2845 8.43218L17.3718 7.93185L14.8076 1.25364C14.6688 0.884432 14.4254 0.567196 14.1093 0.343496C13.7932 0.119796 13.4192 6.74844e-05 13.0363 0H13.0344C12.652 0.000705435 12.2787 0.120739 11.9633 0.344405C11.6479 0.568071 11.4052 0.88496 11.2667 1.25364L8.66426 7.97041L1.78985 8.43218C1.40762 8.458 1.04177 8.60238 0.740062 8.84648C0.438353 9.09058 0.214786 9.42306 0.0985288 9.80055C-0.0241138 10.1834 -0.0324569 10.5956 0.0745864 10.9834C0.18163 11.3712 0.399099 11.7167 0.698676 11.9749L5.98724 16.5982L4.41412 22.998C4.3057 23.4291 4.32564 23.884 4.47133 24.3032C4.61703 24.7224 4.8817 25.0863 5.23069 25.3473C5.56763 25.6009 5.97056 25.7436 6.38704 25.757C6.80352 25.7705 7.21426 25.6539 7.5658 25.4226L13.0217 21.8479C13.0289 21.8422 13.0363 21.8385 13.0526 21.8479L18.9231 25.6943C19.2418 25.9049 19.6145 26.0112 19.9926 25.9991C20.3706 25.987 20.7363 25.8572 21.0418 25.6266C21.3581 25.3902 21.5979 25.0606 21.73 24.6808C21.862 24.3011 21.8801 23.889 21.782 23.4984L20.1107 16.507L25.3756 11.9749C25.6752 11.7167 25.8926 11.3712 25.9997 10.9834C26.1068 10.5956 26.0984 10.1834 25.9757 9.80055Z" fill="#3F53D8"/>
</g>
<g clip-path="url(#clip1_4232_2)">
<path d="M68.9757 9.80055C68.8595 9.42306 68.6359 9.09058 68.3342 8.84648C68.0325 8.60238 67.6667 8.458 67.2845 8.43218L60.3718 7.93185L57.8076 1.25364C57.6688 0.884432 57.4254 0.567196 57.1093 0.343496C56.7932 0.119796 56.4192 6.74844e-05 56.0363 0H56.0344C55.652 0.000705435 55.2787 0.120739 54.9633 0.344405C54.6479 0.568071 54.4052 0.88496 54.2667 1.25364L51.6643 7.97041L44.7898 8.43218C44.4076 8.458 44.0418 8.60238 43.7401 8.84648C43.4384 9.09058 43.2148 9.42306 43.0985 9.80055C42.9759 10.1834 42.9675 10.5956 43.0746 10.9834C43.1816 11.3712 43.3991 11.7167 43.6987 11.9749L48.9872 16.5982L47.4141 22.998C47.3057 23.4291 47.3256 23.884 47.4713 24.3032C47.617 24.7224 47.8817 25.0863 48.2307 25.3473C48.5676 25.6009 48.9706 25.7436 49.387 25.757C49.8035 25.7705 50.2143 25.6539 50.5658 25.4226L56.0217 21.8479C56.0289 21.8422 56.0363 21.8385 56.0526 21.8479L61.9231 25.6943C62.2418 25.9049 62.6145 26.0112 62.9926 25.9991C63.3706 25.987 63.7363 25.8572 64.0418 25.6266C64.3581 25.3902 64.5979 25.0606 64.73 24.6808C64.862 24.3011 64.8801 23.889 64.782 23.4984L63.1107 16.507L68.3756 11.9749C68.6752 11.7167 68.8926 11.3712 68.9997 10.9834C69.1068 10.5956 69.0984 10.1834 68.9757 9.80055Z" fill="#3F53D8"/>
</g>
<g clip-path="url(#clip2_4232_2)">
<path d="M111.976 9.80055C111.86 9.42306 111.636 9.09058 111.334 8.84648C111.032 8.60238 110.667 8.458 110.284 8.43218L103.372 7.93185L100.808 1.25364C100.669 0.884432 100.425 0.567196 100.109 0.343496C99.7932 0.119796 99.4192 6.74844e-05 99.0363 0H99.0344C98.652 0.000705435 98.2787 0.120739 97.9633 0.344405C97.6479 0.568071 97.4052 0.88496 97.2667 1.25364L94.6643 7.97041L87.7898 8.43218C87.4076 8.458 87.0418 8.60238 86.7401 8.84648C86.4384 9.09058 86.2148 9.42306 86.0985 9.80055C85.9759 10.1834 85.9675 10.5956 86.0746 10.9834C86.1816 11.3712 86.3991 11.7167 86.6987 11.9749L91.9872 16.5982L90.4141 22.998C90.3057 23.4291 90.3256 23.884 90.4713 24.3032C90.617 24.7224 90.8817 25.0863 91.2307 25.3473C91.5676 25.6009 91.9706 25.7436 92.387 25.757C92.8035 25.7705 93.2143 25.6539 93.5658 25.4226L99.0217 21.8479C99.0289 21.8422 99.0363 21.8385 99.0526 21.8479L104.923 25.6943C105.242 25.9049 105.615 26.0112 105.993 25.9991C106.371 25.987 106.736 25.8572 107.042 25.6266C107.358 25.3902 107.598 25.0606 107.73 24.6808C107.862 24.3011 107.88 23.889 107.782 23.4984L106.111 16.507L111.376 11.9749C111.675 11.7167 111.893 11.3712 112 10.9834C112.107 10.5956 112.098 10.1834 111.976 9.80055Z" fill="#3F53D8"/>
</g>
<g clip-path="url(#clip3_4232_2)">
<path d="M154.976 9.80055C154.86 9.42306 154.636 9.09058 154.334 8.84648C154.032 8.60238 153.667 8.458 153.284 8.43218L146.372 7.93185L143.808 1.25364C143.669 0.884432 143.425 0.567196 143.109 0.343496C142.793 0.119796 142.419 6.74844e-05 142.036 0H142.034C141.652 0.000705435 141.279 0.120739 140.963 0.344405C140.648 0.568071 140.405 0.88496 140.267 1.25364L137.664 7.97041L130.79 8.43218C130.408 8.458 130.042 8.60238 129.74 8.84648C129.438 9.09058 129.215 9.42306 129.099 9.80055C128.976 10.1834 128.968 10.5956 129.075 10.9834C129.182 11.3712 129.399 11.7167 129.699 11.9749L134.987 16.5982L133.414 22.998C133.306 23.4291 133.326 23.884 133.471 24.3032C133.617 24.7224 133.882 25.0863 134.231 25.3473C134.568 25.6009 134.971 25.7436 135.387 25.757C135.804 25.7705 136.214 25.6539 136.566 25.4226L142.022 21.8479C142.029 21.8422 142.036 21.8385 142.053 21.8479L147.923 25.6943C148.242 25.9049 148.615 26.0112 148.993 25.9991C149.371 25.987 149.736 25.8572 150.042 25.6266C150.358 25.3902 150.598 25.0606 150.73 24.6808C150.862 24.3011 150.88 23.889 150.782 23.4984L149.111 16.507L154.376 11.9749C154.675 11.7167 154.893 11.3712 155 10.9834C155.107 10.5956 155.098 10.1834 154.976 9.80055Z" fill="#3F53D8"/>
</g>
<g clip-path="url(#clip4_4232_2)">
<path opacity="0.2" d="M198.13 9.80055C198.014 9.42306 197.79 9.09058 197.489 8.84648C197.187 8.60238 196.821 8.458 196.439 8.43218L189.526 7.93185L186.962 1.25364C186.823 0.884432 186.58 0.567196 186.264 0.343496C185.948 0.119796 185.574 6.74844e-05 185.191 0H185.189C184.806 0.000705435 184.433 0.120739 184.118 0.344405C183.802 0.568071 183.56 0.88496 183.421 1.25364L180.819 7.97041L173.944 8.43218C173.562 8.458 173.196 8.60238 172.894 8.84648C172.593 9.09058 172.369 9.42306 172.253 9.80055C172.13 10.1834 172.122 10.5956 172.229 10.9834C172.336 11.3712 172.554 11.7167 172.853 11.9749L178.142 16.5982L176.569 22.998C176.46 23.4291 176.48 23.884 176.626 24.3032C176.771 24.7224 177.036 25.0863 177.385 25.3473C177.722 25.6009 178.125 25.7436 178.541 25.757C178.958 25.7705 179.369 25.6539 179.72 25.4226L185.176 21.8479C185.183 21.8422 185.191 21.8385 185.207 21.8479L191.078 25.6943C191.396 25.9049 191.769 26.0112 192.147 25.9991C192.525 25.987 192.891 25.8572 193.196 25.6266C193.512 25.3902 193.752 25.0606 193.884 24.6808C194.016 24.3011 194.035 23.889 193.936 23.4984L192.265 16.507L197.53 11.9749C197.83 11.7167 198.047 11.3712 198.154 10.9834C198.261 10.5956 198.253 10.1834 198.13 9.80055Z" fill="#3F53D8"/>
</g>
<defs>
<clipPath id="clip0_4232_2">
<rect width="27" height="26" fill="white"/>
</clipPath>
<clipPath id="clip1_4232_2">
<rect width="27" height="26" fill="white" transform="translate(43)"/>
</clipPath>
<clipPath id="clip2_4232_2">
<rect width="27" height="26" fill="white" transform="translate(86)"/>
</clipPath>
<clipPath id="clip3_4232_2">
<rect width="27" height="26" fill="white" transform="translate(129)"/>
</clipPath>
<clipPath id="clip4_4232_2">
<rect width="27" height="26" fill="white" transform="translate(172)"/>
</clipPath>
</defs>
</svg>
