<svg width="20" height="20" viewBox="0 0 20 20" fill="none" xmlns="http://www.w3.org/2000/svg">
<g clip-path="url(#clip0_1_1044)">
<path d="M9.73589 0.000976562C4.48436 0.000976562 0.212036 4.48691 0.212036 10.0009C0.212036 15.5148 4.48436 20.0008 9.73589 20.0008C14.9873 20.0008 19.2597 15.5148 19.2597 10.0009C19.2597 4.48691 14.9873 0.000976562 9.73589 0.000976562ZM15.9422 4.71716C17.0113 6.09904 17.6695 7.84326 17.7243 9.74461C15.7438 9.3141 13.9504 9.36462 12.3672 9.69056C12.0806 8.98666 11.7838 8.31606 11.4843 7.68227C13.2085 6.90238 14.7094 5.90626 15.9422 4.71716ZM14.8693 3.57226C13.6457 4.74499 12.2276 5.6133 10.7757 6.25436C9.70998 4.20808 8.69032 2.66713 8.06918 1.79143C8.60703 1.67112 9.16435 1.60658 9.73589 1.60658C11.6887 1.60658 13.4794 2.34665 14.8693 3.57226ZM6.52474 2.31582C6.99378 2.954 8.11098 4.55189 9.31105 6.82531C6.29496 7.85707 3.36839 8.0309 1.96209 8.04706C2.54826 5.47596 4.26304 3.36182 6.52474 2.31582ZM1.74954 9.65673C1.76463 9.65673 1.7792 9.65684 1.7946 9.65684C2.76632 9.65684 4.54665 9.58823 6.64259 9.18693C7.83838 8.95797 8.9723 8.64981 10.0363 8.26789C10.3132 8.84751 10.5886 9.45892 10.8556 10.0998C9.36579 10.6034 8.10945 11.3281 7.11429 12.0476C5.44548 13.2542 4.27639 14.593 3.63803 15.4207C2.45611 13.9572 1.74118 12.0656 1.74118 10.0009C1.74118 9.88548 1.74505 9.77105 1.74954 9.65673ZM4.73994 16.5473C5.28951 15.8207 6.40813 14.4983 8.02627 13.3378C9.12593 12.5492 10.2636 11.9632 11.4348 11.5786C12.1144 13.4281 12.6946 15.4716 13.0405 17.6414C12.0325 18.1239 10.9141 18.3952 9.73589 18.3952C7.84664 18.3952 6.10964 17.7021 4.73994 16.5473ZM14.4472 16.7768C14.0907 14.7841 13.5591 12.9103 12.9445 11.1979C14.4563 10.9301 16.0187 10.9853 17.6236 11.3638C17.2775 13.5785 16.1038 15.5035 14.4472 16.7768Z" fill="#080829"/>
</g>
<defs>
<clipPath id="clip0_1_1044">
<rect width="20" height="20" fill="white"/>
</clipPath>
</defs>
</svg>
