<svg width="22" height="22" viewBox="0 0 22 22" fill="none" xmlns="http://www.w3.org/2000/svg">
<path opacity="0.1" d="M17.3157 4.33691C18.2277 4.33691 18.6637 5.45779 17.9914 6.07406L12.3534 11.2423C11.5887 11.9432 10.4151 11.9432 9.65041 11.2423L4.01233 6.07406C3.34003 5.45779 3.77604 4.33691 4.68805 4.33691H17.3157Z" fill="#080829"/>
<path d="M17.8864 4.33691H4.11719C3.01262 4.33691 2.11719 5.23233 2.11719 6.3369V15.6638C2.11719 16.7684 3.01262 17.6638 4.11719 17.6638H17.8864C18.991 17.6638 19.8864 16.7684 19.8864 15.6638V6.33691C19.8864 5.23234 18.991 4.33691 17.8864 4.33691Z" stroke="#080829" stroke-width="1.2" stroke-linecap="round" stroke-linejoin="round"/>
<path d="M19.2917 5.07715L12.3602 11.5134C11.5929 12.226 10.4058 12.226 9.63844 11.5134L2.70703 5.07715" stroke="#080829" stroke-width="1.2" stroke-linecap="round" stroke-linejoin="round"/>
</svg>
