<svg width="20" height="20" viewBox="0 0 20 20" fill="none" xmlns="http://www.w3.org/2000/svg">
<g clip-path="url(#clip0_1_1047)">
<path d="M19.241 5.88005C19.1963 4.81738 19.0327 4.0868 18.7982 3.45374C18.5564 2.78176 18.1843 2.18014 17.6968 1.68002C17.2204 1.1721 16.6438 0.777435 16.0112 0.527447C15.4048 0.281274 14.7126 0.109427 13.7005 0.0625732C12.6809 0.0117516 12.3572 0 9.77119 0C7.18507 0 6.86138 0.0117516 5.84553 0.0586052C4.83345 0.105459 4.13766 0.277459 3.5349 0.523479C2.89478 0.777435 2.32181 1.16814 1.8455 1.68002C1.36177 2.18014 0.986043 2.78573 0.747813 3.44992C0.513363 4.0868 0.3497 4.81341 0.305078 5.87609C0.256676 6.9467 0.245483 7.28658 0.245483 10.002C0.245483 12.7173 0.256676 13.0572 0.301299 14.1239C0.345921 15.1865 0.50973 15.9171 0.74418 16.5502C0.986043 17.2221 1.36177 17.8238 1.8455 18.3239C2.32181 18.8318 2.89856 19.2265 3.53112 19.4765C4.13766 19.7226 4.82967 19.8945 5.84189 19.9413C6.8576 19.9883 7.18144 19.9999 9.76747 19.9999C12.3536 19.9999 12.6773 19.9883 13.6931 19.9413C14.7052 19.8945 15.401 19.7226 16.0038 19.4765C17.2839 18.9568 18.2959 17.8941 18.7908 16.5502C19.0251 15.9133 19.1889 15.1865 19.2336 14.1239C19.2782 13.0572 19.2894 12.7173 19.2894 10.002C19.2894 7.28658 19.2856 6.9467 19.241 5.88005ZM17.5257 14.0457C17.4847 15.0225 17.3284 15.5499 17.1982 15.9015C16.8781 16.7728 16.2196 17.4643 15.3898 17.8004C15.0549 17.9372 14.5489 18.1012 13.6223 18.1441C12.6177 18.1911 12.3163 18.2027 9.7749 18.2027C7.23347 18.2027 6.92839 18.1911 5.92736 18.1441C4.99712 18.1012 4.49479 17.9372 4.1599 17.8004C3.74697 17.6402 3.37109 17.3862 3.066 17.0541C2.74972 16.7298 2.50785 16.3391 2.35523 15.9055C2.22501 15.5539 2.06876 15.0225 2.02791 14.0497C1.98314 12.9948 1.9721 12.6783 1.9721 10.0097C1.9721 7.34122 1.98314 7.02087 2.02791 5.96995C2.06876 4.99319 2.22501 4.46575 2.35523 4.11412C2.50785 3.68038 2.74972 3.28586 3.06978 2.96536C3.3785 2.63327 3.7506 2.37931 4.16368 2.21921C4.49857 2.08247 5.00468 1.9184 5.93114 1.87537C6.9358 1.82851 7.23725 1.81676 9.77852 1.81676C12.3238 1.81676 12.6251 1.82851 13.6261 1.87537C14.5563 1.9184 15.0587 2.08247 15.3936 2.21921C15.8065 2.37931 16.1824 2.63327 16.4875 2.96536C16.8038 3.28967 17.0456 3.68038 17.1982 4.11412C17.3284 4.46575 17.4847 4.99701 17.5257 5.96995C17.5703 7.02484 17.5815 7.34122 17.5815 10.0097C17.5815 12.6783 17.5703 12.9908 17.5257 14.0457Z" fill="#080829"/>
<path d="M9.77025 4.86426C7.06894 4.86426 4.8772 7.16543 4.8772 10.0019C4.8772 12.8385 7.06894 15.1397 9.77025 15.1397C12.4718 15.1397 14.6633 12.8385 14.6633 10.0019C14.6633 7.16543 12.4718 4.86426 9.77025 4.86426ZM9.77025 13.3346C8.01778 13.3346 6.59625 11.8422 6.59625 10.0019C6.59625 8.16172 8.01778 6.66927 9.77025 6.66927C11.5229 6.66927 12.9443 8.16172 12.9443 10.0019C12.9443 11.8422 11.5229 13.3346 9.77025 13.3346Z" fill="#080829"/>
<path d="M16.0013 4.66133C16.0013 5.3237 15.4898 5.86076 14.8588 5.86076C14.228 5.86076 13.7164 5.3237 13.7164 4.66133C13.7164 3.99882 14.228 3.46191 14.8588 3.46191C15.4898 3.46191 16.0013 3.99882 16.0013 4.66133Z" fill="#080829"/>
</g>
<defs>
<clipPath id="clip0_1_1047">
<rect width="20" height="20" fill="white"/>
</clipPath>
</defs>
</svg>
