<svg width="22" height="22" viewBox="0 0 22 22" fill="none" xmlns="http://www.w3.org/2000/svg">
<path opacity="0.1" d="M7.94718 10.7269C8.66032 12.1848 9.84213 13.3613 11.3033 14.0678C11.4102 14.1184 11.5285 14.1404 11.6465 14.1314C11.7644 14.1225 11.878 14.083 11.9761 14.0169L14.1276 12.5822C14.2228 12.5187 14.3322 12.48 14.4461 12.4696C14.56 12.4591 14.6747 12.4772 14.7798 12.5223L18.8049 14.2473C18.9416 14.3054 19.0558 14.4063 19.1302 14.5349C19.2045 14.6635 19.2351 14.8128 19.2173 14.9603C19.09 15.9558 18.6043 16.8708 17.851 17.534C17.0978 18.1971 16.1286 18.563 15.125 18.5631C12.0253 18.5631 9.05252 17.3317 6.86069 15.1399C4.66886 12.948 3.4375 9.97526 3.4375 6.87554C3.43755 5.87194 3.80342 4.90277 4.46659 4.1495C5.12975 3.39623 6.04475 2.91051 7.04026 2.78329C7.18774 2.76544 7.33703 2.796 7.46562 2.87038C7.59422 2.94475 7.69517 3.0589 7.75325 3.19563L9.47978 7.2242C9.52444 7.3284 9.54264 7.44203 9.53275 7.55497C9.52287 7.6679 9.4852 7.77664 9.42312 7.8715L7.99343 10.056C7.92836 10.1543 7.88989 10.2678 7.88179 10.3853C7.87368 10.5029 7.89621 10.6206 7.94718 10.7269Z" fill="#080829"/>
<path d="M7.94718 10.7269C8.66032 12.1848 9.84213 13.3613 11.3033 14.0678C11.4102 14.1184 11.5285 14.1404 11.6465 14.1314C11.7644 14.1225 11.878 14.083 11.9761 14.0169L14.1276 12.5822C14.2228 12.5187 14.3322 12.48 14.4461 12.4696C14.56 12.4591 14.6747 12.4772 14.7798 12.5223L18.8049 14.2473C18.9416 14.3054 19.0558 14.4063 19.1302 14.5349C19.2045 14.6635 19.2351 14.8128 19.2173 14.9603C19.09 15.9558 18.6043 16.8708 17.851 17.534C17.0978 18.1971 16.1286 18.563 15.125 18.5631C12.0253 18.5631 9.05252 17.3317 6.86069 15.1399C4.66886 12.948 3.4375 9.97526 3.4375 6.87554C3.43755 5.87194 3.80342 4.90277 4.46659 4.1495C5.12975 3.39623 6.04475 2.91051 7.04026 2.78329C7.18774 2.76544 7.33703 2.796 7.46562 2.87038C7.59422 2.94475 7.69517 3.0589 7.75325 3.19563L9.47978 7.2242C9.52444 7.3284 9.54264 7.44203 9.53275 7.55497C9.52287 7.6679 9.4852 7.77664 9.42312 7.8715L7.99343 10.056C7.92836 10.1543 7.88989 10.2678 7.88179 10.3853C7.87368 10.5029 7.89621 10.6206 7.94718 10.7269Z" stroke="#080829" stroke-width="1.2" stroke-linecap="round" stroke-linejoin="round"/>
</svg>
