<svg width="22" height="22" viewBox="0 0 22 22" fill="none" xmlns="http://www.w3.org/2000/svg">
<path opacity="0.1" d="M11 19.25C15.5563 19.25 19.25 15.5563 19.25 11C19.25 6.44365 15.5563 2.75 11 2.75C6.44365 2.75 2.75 6.44365 2.75 11C2.75 15.5563 6.44365 19.25 11 19.25Z" fill="#080829"/>
<path d="M11 19.25C15.5563 19.25 19.25 15.5563 19.25 11C19.25 6.44365 15.5563 2.75 11 2.75C6.44365 2.75 2.75 6.44365 2.75 11C2.75 15.5563 6.44365 19.25 11 19.25Z" stroke="#080829" stroke-width="1.2" stroke-miterlimit="10"/>
<path d="M2.75 11H19.25" stroke="#080829" stroke-width="1.2" stroke-linecap="round" stroke-linejoin="round"/>
<path d="M11 19.0287C12.8985 19.0287 14.4375 15.4343 14.4375 11.0002C14.4375 6.56618 12.8985 2.97168 11 2.97168C9.10152 2.97168 7.5625 6.56618 7.5625 11.0002C7.5625 15.4343 9.10152 19.0287 11 19.0287Z" stroke="#080829" stroke-width="1.2" stroke-miterlimit="10"/>
</svg>
