<svg width="20" height="20" viewBox="0 0 20 20" fill="none" xmlns="http://www.w3.org/2000/svg">
<path d="M19.2597 3.79875C18.5513 4.125 17.7966 4.34125 17.0097 4.44625C17.8192 3.93875 18.437 3.14125 18.7275 2.18C17.9727 2.6525 17.1394 2.98625 16.2513 3.1725C15.5346 2.37125 14.5132 1.875 13.3989 1.875C11.237 1.875 9.49656 3.7175 9.49656 5.97625C9.49656 6.30125 9.52275 6.61375 9.58703 6.91125C6.34061 6.745 3.46799 5.11125 1.53823 2.6225C1.20133 3.23625 1.00371 3.93875 1.00371 4.695C1.00371 6.115 1.70014 7.37375 2.73823 8.1025C2.11085 8.09 1.49537 7.89875 0.973945 7.5975C0.973945 7.61 0.973945 7.62625 0.973945 7.6425C0.973945 9.635 2.32752 11.29 4.10252 11.6712C3.78466 11.7625 3.43823 11.8062 3.07871 11.8062C2.82871 11.8062 2.57633 11.7913 2.33942 11.7362C2.84537 13.36 4.28109 14.5538 5.98823 14.5925C4.65966 15.6838 2.97275 16.3412 1.14656 16.3412C0.826322 16.3412 0.519179 16.3263 0.212036 16.285C1.9418 17.4563 3.9918 18.125 6.20252 18.125C13.3883 18.125 17.3168 11.875 17.3168 6.4575C17.3168 6.27625 17.3108 6.10125 17.3026 5.9275C18.0775 5.35 18.7287 4.62875 19.2597 3.79875Z" fill="#080829"/>
</svg>
