<svg width="150" height="45" viewBox="0 0 150 45" fill="none" xmlns="http://www.w3.org/2000/svg">
<path d="M13.3263 36.5713C15.0106 36.5713 16.5158 36.2896 17.8421 35.7261C19.1894 35.1626 20.3263 34.4218 21.2526 33.5035C22.179 32.5643 22.8421 31.5418 23.2421 30.4356L19.3895 28.6513C18.9263 29.82 18.1685 30.7905 17.1158 31.5626C16.0842 32.3139 14.8211 32.6896 13.3263 32.6896C11.8527 32.6896 10.5579 32.3452 9.44211 31.6565C8.32631 30.9678 7.45263 30.0182 6.82105 28.8078C6.18948 27.5765 5.87369 26.147 5.87369 24.5191C5.87369 22.8913 6.18948 21.4721 6.82105 20.2617C7.45263 19.0304 8.32631 18.0809 9.44211 17.413C10.5579 16.7243 11.8527 16.38 13.3263 16.38C14.8211 16.38 16.0842 16.7661 17.1158 17.5383C18.1685 18.2896 18.9263 19.2495 19.3895 20.4183L23.2421 18.6339C22.8421 17.5278 22.179 16.5157 21.2526 15.5974C20.3263 14.6583 19.1894 13.907 17.8421 13.3435C16.5158 12.78 15.0106 12.4983 13.3263 12.4983C11.6421 12.4983 10.0842 12.8008 8.65263 13.4061C7.22105 13.9904 5.97895 14.8252 4.92632 15.9104C3.87368 16.9748 3.05263 18.2478 2.46316 19.7296C1.87369 21.1904 1.57895 22.7869 1.57895 24.5191C1.57895 26.2513 1.87369 27.8582 2.46316 29.34C3.05263 30.8008 3.87368 32.0739 4.92632 33.1591C5.97895 34.2443 7.22105 35.0895 8.65263 35.6948C10.0842 36.2791 11.6421 36.5713 13.3263 36.5713ZM33.5258 36.5713C35.1889 36.5713 36.7047 36.1957 38.0732 35.4443C39.4415 34.6722 40.5363 33.6182 41.3574 32.2826C42.1784 30.9261 42.589 29.3921 42.589 27.6809C42.589 25.9696 42.1784 24.4461 41.3574 23.1104C40.5573 21.7748 39.4731 20.7208 38.1047 19.9487C36.7363 19.1766 35.2099 18.7904 33.5258 18.7904C31.8205 18.7904 30.2836 19.1766 28.9153 19.9487C27.5468 20.7208 26.4521 21.7748 25.6311 23.1104C24.831 24.4461 24.4311 25.9696 24.4311 27.6809C24.4311 29.3921 24.831 30.9157 25.6311 32.2513C26.4521 33.5869 27.5468 34.6409 28.9153 35.413C30.3047 36.1852 31.8416 36.5713 33.5258 36.5713ZM33.5258 32.8148C32.5994 32.8148 31.7678 32.5957 31.0311 32.1574C30.3152 31.7191 29.7468 31.1139 29.3258 30.3417C28.9257 29.5487 28.7258 28.6618 28.7258 27.6809C28.7258 26.7 28.9257 25.8234 29.3258 25.0513C29.7468 24.2792 30.3152 23.6739 31.0311 23.2357C31.7678 22.7766 32.5994 22.547 33.5258 22.547C34.452 22.547 35.2626 22.7766 35.9574 23.2357C36.6731 23.6739 37.231 24.2792 37.6311 25.0513C38.052 25.8234 38.2626 26.7 38.2626 27.6809C38.2626 28.6618 38.052 29.5487 37.6311 30.3417C37.231 31.1139 36.6731 31.7191 35.9574 32.1574C35.2626 32.5957 34.452 32.8148 33.5258 32.8148ZM44.7788 36.1957H48.9156V12.4983H44.7788V36.1957ZM51.7877 36.1957H55.9245V12.4983H51.7877V36.1957ZM64.0074 36.5713C66.2389 36.5713 68.0284 35.8408 69.3758 34.38V36.1957H73.2916V24.8635C73.2916 23.6739 72.9863 22.62 72.3758 21.7017C71.7652 20.7834 70.9232 20.0739 69.8495 19.573C68.7968 19.0513 67.5652 18.7904 66.1546 18.7904C64.4284 18.7904 62.8915 19.1974 61.5441 20.0113C60.1968 20.8252 59.2705 21.9 58.7652 23.2357L62.1442 24.8635C62.46 24.0913 62.9547 23.4756 63.6284 23.0165C64.302 22.5365 65.0915 22.2965 65.9967 22.2965C66.9442 22.2965 67.7021 22.547 68.2705 23.0478C68.86 23.5279 69.1547 24.133 69.1547 24.8635V25.427L64.0389 26.2409C62.0179 26.5747 60.5231 27.2113 59.5546 28.1504C58.5863 29.0896 58.102 30.2687 58.102 31.6878C58.102 33.1904 58.6389 34.38 59.7125 35.2565C60.7862 36.133 62.2178 36.5713 64.0074 36.5713ZM62.3968 31.5313C62.3968 30.3417 63.2073 29.5904 64.8283 29.2774L69.1547 28.5574V29.2461C69.1547 30.4148 68.7442 31.4061 67.9232 32.22C67.1231 33.0339 66.0705 33.4409 64.7652 33.4409C64.0705 33.4409 63.5021 33.2739 63.06 32.94C62.6179 32.5852 62.3968 32.1156 62.3968 31.5313ZM85.5466 36.5713C87.2098 36.5713 88.694 36.1852 89.9992 35.413C91.3045 34.62 92.3361 33.5556 93.0939 32.22C93.8518 30.8634 94.2308 29.3505 94.2308 27.6809C94.2308 26.0113 93.8518 24.5087 93.0939 23.173C92.3361 21.8165 91.3045 20.7521 89.9992 19.98C88.694 19.1869 87.2203 18.7904 85.5782 18.7904C83.3466 18.7904 81.5888 19.4896 80.3045 20.8878V12.4983H76.1676V36.1957H80.0518V34.2861C80.6834 35.0166 81.4729 35.58 82.4203 35.9765C83.3888 36.373 84.4309 36.5713 85.5466 36.5713ZM85.0729 32.8148C84.1677 32.8148 83.3466 32.5957 82.6097 32.1574C81.894 31.7191 81.3256 31.1139 80.9045 30.3417C80.5045 29.5696 80.3045 28.6826 80.3045 27.6809C80.3045 26.6791 80.5045 25.7921 80.9045 25.02C81.3256 24.2479 81.894 23.6426 82.6097 23.2043C83.3466 22.7661 84.1677 22.547 85.0729 22.547C86.0203 22.547 86.8519 22.7766 87.5676 23.2357C88.3045 23.6739 88.8835 24.2792 89.3045 25.0513C89.7256 25.8234 89.9361 26.7 89.9361 27.6809C89.9361 28.6618 89.7256 29.5487 89.3045 30.3417C88.8835 31.1139 88.3045 31.7191 87.5676 32.1574C86.8519 32.5957 86.0203 32.8148 85.0729 32.8148Z" fill="#080829"/>
<path d="M98.3953 36.1957H102.563V31.813H98.3953V36.1957Z" fill="#3F53D8"/>
<path d="M126.809 0C120.791 0.0067294 115.022 2.37942 110.767 6.59753C106.512 10.8157 104.119 16.5347 104.112 22.5V41.475C104.113 42.4096 104.488 43.3056 105.155 43.9665C105.821 44.6273 106.725 44.9989 107.667 45H126.809C132.829 45 138.602 42.6295 142.858 38.4099C147.115 34.1903 149.507 28.4674 149.507 22.5C149.507 16.5326 147.115 10.8097 142.858 6.59009C138.602 2.37053 132.829 0 126.809 0Z" fill="#3F53D8"/>
<path d="M114.426 17.2565H118.563V12.8739H114.426V17.2565ZM114.426 36.1957H118.563V19.1661H114.426V36.1957ZM129.836 36.5713C131.499 36.5713 133.014 36.1957 134.383 35.4443C135.751 34.6722 136.846 33.6182 137.667 32.2826C138.489 30.9261 138.899 29.3921 138.899 27.6809C138.899 25.9696 138.489 24.4461 137.667 23.1104C136.867 21.7748 135.783 20.7208 134.415 19.9487C133.046 19.1766 131.519 18.7904 129.836 18.7904C128.131 18.7904 126.593 19.1766 125.225 19.9487C123.857 20.7208 122.762 21.7748 121.941 23.1104C121.141 24.4461 120.74 25.9696 120.74 27.6809C120.74 29.3921 121.141 30.9157 121.941 32.2513C122.762 33.5869 123.857 34.6409 125.225 35.413C126.615 36.1852 128.151 36.5713 129.836 36.5713ZM129.836 32.8148C128.909 32.8148 128.077 32.5957 127.341 32.1574C126.625 31.7191 126.056 31.1139 125.636 30.3417C125.235 29.5487 125.036 28.6618 125.036 27.6809C125.036 26.7 125.235 25.8234 125.636 25.0513C126.056 24.2792 126.625 23.6739 127.341 23.2357C128.077 22.7766 128.909 22.547 129.836 22.547C130.762 22.547 131.573 22.7766 132.267 23.2357C132.983 23.6739 133.54 24.2792 133.941 25.0513C134.362 25.8234 134.573 26.7 134.573 27.6809C134.573 28.6618 134.362 29.5487 133.941 30.3417C133.54 31.1139 132.983 31.7191 132.267 32.1574C131.573 32.5957 130.762 32.8148 129.836 32.8148Z" fill="white"/>
</svg>
